<?xml version="1.0" encoding="UTF-8" standalone="no"?><!DOCTYPE svg PUBLIC "-//W3C//DTD SVG 1.1//EN" "http://www.w3.org/Graphics/SVG/1.1/DTD/svg11.dtd"><svg width="100%" height="100%" viewBox="0 0 4292 3042" version="1.1" xmlns="http://www.w3.org/2000/svg" xmlns:xlink="http://www.w3.org/1999/xlink" xml:space="preserve" xmlns:serif="http://www.serif.com/" style="fill-rule:evenodd;clip-rule:evenodd;stroke-miterlimit:10;"><ellipse cx="3394.42" cy="2438.42" rx="880.667" ry="171.167" style="fill:#6c63ff;fill-opacity:0.1;"/><g opacity="0.5"><path d="M2640.08,431.5c-11.875,3.375 -26.416,12.167 -33.583,36.208c-14.042,47.125 18.583,79.167 7.833,128.292c-2.983,13.031 -8.661,25.294 -16.666,36c-13.125,17.792 -27.375,26.208 -41.209,38.667c-17.545,15.914 -30.121,36.566 -36.208,59.458c-6.67,25.268 -7.228,51.765 -1.625,77.292c4.917,21.333 13.292,36.875 20.625,54.166c9.118,22.056 16.243,44.883 21.292,68.209c2.771,11.359 4.335,22.979 4.666,34.666c-0.207,15.528 -1.6,31.018 -4.166,46.334l-19.959,139.25c-3.031,18.206 -4.854,36.594 -5.458,55.041c0.261,18.488 2.397,36.902 6.375,54.959c7,36.833 14.542,75 30.583,94.5c16.042,19.5 43.375,12.5 60.167,-26.959c15.958,-37.75 16.333,-88.125 30.417,-128.458c22.208,-63.542 66.333,-72.083 90.833,-132.708c23.5,-58.334 16.292,-129.5 28.208,-195.834c8.334,-47.541 26.709,-90.875 37.5,-137.833c15.5,-67.625 13.959,-137.833 1.584,-189.833c-9.412,-42.723 -29.775,-82.273 -59.084,-114.75c-10.375,-11.459 -21.5,-21.667 -34.541,-22.709c-13.875,-1.083 -26,16.375 -39.709,21.625c-15.833,6.209 -31.75,-0.166 -47.875,4.417Z" style="fill:#6c63ff;fill-rule:nonzero;"/><path d="M2715.21,409c0,0 -23.5,601.417 -122.333,956.042" style="fill:none;fill-rule:nonzero;stroke:#535461;stroke-width:8.33px;"/><path d="M2605.92,470.542c-0,-0 105.625,96.166 85.583,279.166" style="fill:none;fill-rule:nonzero;stroke:#535461;stroke-width:8.33px;"/><path d="M2517.29,744.208c-0,0 173.375,34.875 160.5,138.584" style="fill:none;fill-rule:nonzero;stroke:#535461;stroke-width:8.33px;"/><path d="M2821.58,541.667c0,-0 -70.166,61.416 -132.666,235.375" style="fill:none;fill-rule:nonzero;stroke:#535461;stroke-width:8.33px;"/><path d="M2753.04,1067.42c-0,-0 -47.875,37.5 -86.292,-93.792" style="fill:none;fill-rule:nonzero;stroke:#535461;stroke-width:8.33px;"/><path d="M2546.46,1144.12c0,0 97.625,-12.75 106.625,-73.875" style="fill:none;fill-rule:nonzero;stroke:#535461;stroke-width:8.33px;"/></g><path d="M2876.08,28.125c-24.166,3.583 -53.25,14.792 -65.208,49.333c-23.458,67.75 47.833,119.042 31.417,189.834c-4.898,19.479 -15.215,37.179 -29.75,51.041c-25,24.625 -53.584,35.375 -80.667,52.084c-27.083,16.708 -55.208,43 -67.917,83.333c-12.208,38.792 -6.916,81.625 5.792,113.625c12.708,32 31.917,55.875 49.083,82.208c20.862,32.413 38.302,66.903 52.042,102.917c6.93,16.415 11.584,33.7 13.833,51.375c2.209,21.667 -0.583,44.958 -3.375,67.75l-24.791,203.083c-3.292,27 -6.625,54.417 -4.75,80.417c2.125,29.958 11,56.125 19.75,81.667c18.833,55.083 39,112.5 74.541,142.833c35.542,30.333 91.292,23.833 121.334,-32.583c28.583,-53.709 23.333,-127.834 47.708,-185.542c38.417,-90.958 128.75,-98.333 172.208,-184.667c41.667,-82.833 18.375,-188.791 35.125,-285.041c12,-68.959 44.5,-130.625 61.167,-198.5c24.042,-97.792 12.5,-201.334 -19.25,-279.167c-31.75,-77.833 -81.958,-133.333 -135.833,-175.958c-22.834,-18.125 -47.042,-34.5 -74.167,-37.5c-28.833,-3.209 -51.875,21.041 -79.583,27.166c-32.25,6.709 -65.917,-4.583 -98.709,0.292Z" style="fill:#6c63ff;fill-rule:nonzero;"/><path d="M3028.92,3.875c-0,0 22.75,882.875 -139.834,1393.42" style="fill:none;fill-rule:nonzero;stroke:#535461;stroke-width:8.33px;"/><path d="M2809.96,81.708c0,0 230,154.167 210.292,421.5" style="fill:none;fill-rule:nonzero;stroke:#535461;stroke-width:8.33px;"/><path d="M2659,474.083c0,0 363,71.917 348.667,223.084" style="fill:none;fill-rule:nonzero;stroke:#535461;stroke-width:8.33px;"/><path d="M3264.79,211.875c-0,0 -137.959,82.125 -246.625,330.875" style="fill:none;fill-rule:nonzero;stroke:#535461;stroke-width:8.33px;"/><path d="M3185.17,978c-0,0 -94.584,50 -189.709,-148.375" style="fill:none;fill-rule:nonzero;stroke:#535461;stroke-width:8.33px;"/><path d="M2766.71,1066.38c0,0 200.542,-7.208 211.959,-96.167" style="fill:none;fill-rule:nonzero;stroke:#535461;stroke-width:8.33px;"/><path d="M280.208,2410.79c0,-0 34.917,45.833 -16.125,114.583c-51.041,68.75 -93.208,127.167 -76.083,170.167c0,-0 77,-128.042 139.667,-129.834c62.666,-1.791 21.5,-77.916 -47.459,-154.916Z" style="fill:#6c63ff;fill-rule:nonzero;"/><path d="M280.208,2410.79c3.116,4.403 5.585,9.23 7.334,14.333c61.166,71.833 93.708,138.875 34.958,140.583c-54.75,1.584 -120.417,99.459 -136.167,124.209c0.52,1.908 1.146,3.786 1.875,5.625c0.73,1.838 77,-128.042 139.667,-129.834c62.667,-1.791 21.292,-77.916 -47.667,-154.916Z" style="fill-opacity:0.1;fill-rule:nonzero;"/><path d="M345.125,2469c0,16.083 -1.792,29.167 -4.167,29.167c-2.375,-0 -4.166,-13.042 -4.166,-29.167c-0,-16.125 2.25,-8.333 4.458,-8.333c2.208,-0 3.875,-7.75 3.875,8.333Z" style="fill:#ffd037;fill-rule:nonzero;"/><path d="M367.417,2488.17c-14.125,7.708 -26.417,12.5 -27.459,10.375c-1.041,-2.125 9.5,-9.792 23.625,-17.459c14.125,-7.666 8.542,-2.083 9.625,0c1.084,2.084 8.292,-0.625 -5.791,7.084Z" style="fill:#ffd037;fill-rule:nonzero;"/><path d="M95.875,2410.79c0,-0 -34.917,45.833 16.125,114.583c51.042,68.75 93.125,127.125 76.083,170.125c0,0 -77,-128.042 -139.666,-129.833c-62.667,-1.792 -21.584,-77.875 47.458,-154.875Z" style="fill:#6c63ff;fill-rule:nonzero;"/><path d="M95.875,2410.79c-3.043,4.415 -5.442,9.242 -7.125,14.333c-61.167,71.833 -93.708,138.875 -34.958,140.583c54.75,1.584 120.416,99.459 136.166,124.209c-0.519,1.908 -1.145,3.786 -1.875,5.625c-0.729,1.838 -77,-128.042 -139.666,-129.834c-62.667,-1.791 -21.584,-77.916 47.458,-154.916Z" style="fill-opacity:0.1;fill-rule:nonzero;"/><path d="M30.875,2469c0,16.083 1.792,29.167 4.167,29.167c2.375,-0 4.166,-13.042 4.166,-29.167c0,-16.125 -2.25,-8.333 -4.458,-8.333c-2.208,-0 -3.875,-7.75 -3.875,8.333Z" style="fill:#ffd037;fill-rule:nonzero;"/><path d="M8.583,2488.17c14.125,7.708 26.417,12.5 27.459,10.375c1.041,-2.125 -9.5,-9.792 -23.625,-17.459c-14.125,-7.666 -8.542,-2.083 -9.625,0c-1.084,2.084 -8.292,-0.625 5.791,7.084Z" style="fill:#ffd037;fill-rule:nonzero;"/><path d="M42,2689.54c0,-0 97.625,-3 127.042,-23.959c29.416,-20.958 150,-45.833 157.458,-12.5c7.458,33.334 146.708,167.125 36.5,168c-110.208,0.875 -256.083,-17.166 -285.458,-35.041c-29.375,-17.875 -35.542,-96.5 -35.542,-96.5Z" style="fill:#a8a8a8;fill-rule:nonzero;"/><path d="M364.958,2809.5c-110.208,0.875 -256.083,-17.167 -285.458,-35.042c-22.375,-13.625 -31.292,-62.5 -34.25,-85.041l-3.25,-0c0,-0 6.167,78.75 35.542,96.625c29.375,17.875 175.25,35.958 285.458,35.041c31.833,-0.25 42.792,-11.583 42.208,-28.333c-4.416,10.25 -16.541,16.583 -40.25,16.75Z" style="fill-opacity:0.2;fill-rule:nonzero;"/><path d="M4093.17,2391.83c7.635,-6.224 13.202,-14.625 15.958,-24.083c2.083,-9.583 -2,-21.042 -11.167,-24.542c-10.25,-3.916 -21.208,3.167 -29.5,10.375c-8.291,7.209 -17.833,15.375 -28.708,13.834c11.356,-10.295 16.491,-25.842 13.5,-40.875c-0.47,-3.067 -1.767,-5.948 -3.75,-8.334c-5.708,-6.083 -16,-3.458 -22.833,1.334c-21.667,15.25 -27.709,44.666 -27.834,71.166c-2.166,-9.541 -0.333,-19.5 -0.416,-29.166c-0.084,-9.667 -2.75,-20.834 -11,-25.917c-5.116,-2.749 -10.862,-4.113 -16.667,-3.958c-9.75,-0.375 -20.583,0.625 -27.25,7.75c-8.333,8.833 -6.125,23.708 1.083,33.333c7.209,9.625 18.125,15.833 28.209,22.583c8.081,4.805 14.975,11.371 20.166,19.209c0.611,1.087 1.113,2.231 1.5,3.416l61.042,0c13.677,-6.969 26.347,-15.757 37.667,-26.125Z" style="fill:#6c63ff;fill-rule:nonzero;"/><path d="M611.375,2001.33c132.583,168.584 81.083,414.875 -3.167,612.084c-28.208,66.041 -60.125,135.916 -48.208,206.708c14.542,86.583 91.667,150 173,183.333c147.917,61.167 325,46.584 460.875,-37.958c117.458,-73.083 201.583,-191.917 321.042,-261.667c200,-116.666 454.416,-72.625 671.5,7.75c153.583,56.875 321.5,130.875 474.125,71.417c107.375,-41.667 181.625,-143.625 222.083,-251.542c19.542,-52.125 33.708,-108.333 70.833,-150c22.167,-24.541 51.084,-42 80.75,-56.666c270.834,-134.209 612.5,-62.5 875.334,-211.167c177.541,-100.5 291.208,-290.125 341.666,-487.833c50.459,-197.709 44.459,-405.042 31.667,-608.625c-9.083,-144.709 -25.375,-299.167 -117.833,-410.875c-97.792,-118.125 -265.667,-162.084 -417.375,-139.625c-151.709,22.458 -289.292,102.875 -410.125,197.125c-151.209,117.791 -291.417,264.5 -477.084,312.25c-126.416,32.5 -259.416,14.708 -389.833,8.583c-218,-10.292 -436.042,12.5 -652.833,37.5c-207.542,24 -416.667,50.417 -614.292,117.917c-139.917,47.791 -252.083,134.5 -384.208,195.083c-86.125,39.5 -180.042,50.417 -261.542,100.708c-100.458,61.959 -192.5,169.75 -166.667,295.834c24.25,120.041 149.875,180.208 220.292,269.666Z" style="fill:#6c63ff;fill-opacity:0.1;fill-rule:nonzero;"/><ellipse cx="2301.46" cy="1830.08" rx="1781.96" ry="171.167" style="fill:#6c63ff;fill-opacity:0.1;"/><ellipse cx="931.917" cy="2817.58" rx="880.667" ry="171.167" style="fill:#6c63ff;fill-opacity:0.1;"/><path d="M1832.17,1776.71l-13.959,20.292c0,0 15.209,20.292 16.667,22.833c1.458,2.542 44.375,-1.25 44.375,-1.25l3.792,-15.208l-6.334,-17.75l-44.541,-8.917Z" style="fill:#e6e6f0;fill-rule:nonzero;"/><path d="M1362.88,1765.29l-27.917,5.041l17.75,34.292l19.042,10.125l17.75,12.667l5.083,-13.917l-12.708,-26.667l-19,-21.541Z" style="fill:#fdc2cc;fill-rule:nonzero;"/><path d="M1819.5,1435.5c0,0 148.417,35.5 176.292,75c-0,0 25.375,21.583 -0,60.875c-25.375,39.292 -60.875,128.125 -60.875,128.125c-0,0 -25.375,86.25 -35.5,92.583c-10.125,6.334 -68.5,11.417 -73.584,-12.5c0,0 32.959,-52 32.959,-76.125c-0,-24.125 54.541,-138.25 54.541,-138.25c0,0 -124.291,-13.958 -163.625,-5.083c-39.333,8.875 17.792,-138.583 69.792,-124.625Z" style="fill:#565171;fill-rule:nonzero;"/><path d="M1819.5,1435.5c0,0 148.417,35.5 176.292,75c-0,0 25.375,21.583 -0,60.875c-25.375,39.292 -60.875,128.125 -60.875,128.125c-0,0 -25.375,86.25 -35.5,92.583c-10.125,6.334 -68.5,11.417 -73.584,-12.5c0,0 32.959,-52 32.959,-76.125c-0,-24.125 54.541,-138.25 54.541,-138.25c0,0 -124.291,-13.958 -163.625,-5.083c-39.333,8.875 17.792,-138.583 69.792,-124.625Z" style="fill-opacity:0.1;fill-rule:nonzero;"/><path d="M1789.04,1469.75c-0.292,7.375 -1.084,15.667 -2.209,24.583c-8.125,64.584 -34.583,160.625 -34.583,160.625c0,0 -26.625,57.084 -34.25,93.875c-7.625,36.792 -59.625,45.834 -59.625,45.834c0,-0 -142.083,16.666 -171.25,10.166c-29.167,-6.5 -75,19.042 -97.667,15.209c-22.666,-3.834 -36.791,-57.084 -36.791,-57.084c39.338,0.231 78.273,-7.982 114.166,-24.083c58.334,-26.625 142.084,-13.958 142.084,-13.958c12.619,-3.665 23.18,-12.385 29.166,-24.084c8.875,-19.041 8.875,-134.458 6.334,-142.083c-16.667,-50 -15.292,-82.083 -10.5,-100.792c1.603,-8.171 5.212,-15.817 10.5,-22.25l144.625,34.042Z" style="fill:#565171;fill-rule:nonzero;"/><path d="M1789.04,1469.75c-0.292,7.375 -1.084,15.667 -2.209,24.583c-12.75,1 -48.5,1.959 -75,-14.416c-25,-15.334 -61.375,-20.542 -77.75,-22.167c1.604,-8.171 5.212,-15.817 10.5,-22.25l144.459,34.25Z" style="fill-opacity:0.1;fill-rule:nonzero;"/><path d="M1806.58,1453.88c-5.916,16.667 -15,36.208 -15,36.208c0,0 -46.916,6.334 -79.916,-13.958c-33,-20.292 -86.25,-22.833 -86.25,-22.833c8.625,-5.292 14.458,-21.375 18.083,-35.459c2.024,-7.962 3.61,-16.03 4.75,-24.166c1.14,-8.137 156,31.708 162.5,36.791c2.417,2 -0.167,12.084 -4.167,23.417Z" style="fill:#e6e6f0;fill-rule:nonzero;"/><path d="M2084.58,919.25l-189.208,114.208l-18.792,11.334l0,-55.792l13.042,-6.25l159.458,-76.208c0,-0 7.625,-138.25 27.917,-116.667c20.292,21.583 7.583,129.375 7.583,129.375Z" style="fill:#fdc2cc;fill-rule:nonzero;"/><path d="M1895.38,1033.46l-18.792,11.334l0,-55.792l13.042,-6.25c0.863,17.006 2.784,33.941 5.75,50.708Z" style="fill-opacity:0.1;fill-rule:nonzero;"/><path d="M1749.75,1053.88l135.708,-78.625c0,0 2.542,76.125 17.75,87.5c0,0 -55.791,16.667 -77.375,52l-76.083,-60.875Z" style="fill:#b45181;fill-rule:nonzero;"/><path d="M1749.75,1053.88l135.708,-78.625c0,0 2.542,76.125 17.75,87.5c0,0 -55.791,16.667 -77.375,52l-76.083,-60.875Z" style="fill-opacity:0.1;fill-rule:nonzero;"/><path d="M2083.38,1120.92c0,-0 -64.542,28.125 -107.292,38.458c-9.619,2.901 -19.681,4.058 -29.708,3.417c-29.167,-5.084 7.625,-41.667 7.625,-41.667l15.333,-2.375l82.334,-12.833c-0,-0 8.875,-126.834 24.083,-116.667c15.208,10.167 7.625,131.667 7.625,131.667Z" style="fill:#fdc2cc;fill-rule:nonzero;"/><path d="M1810.62,1006.75c0,0 -54.542,40.583 -34.25,91.333c20.292,50.75 -105.292,-30.458 -105.292,-30.458c0,0 40.584,-60.875 49.459,-106.542c8.875,-45.666 90.083,45.667 90.083,45.667Z" style="fill:#fdc2cc;fill-rule:nonzero;"/><path d="M1806.58,1453.88c-23.589,-8.885 -48.245,-14.628 -73.333,-17.083c-36.667,-4.167 -70.25,-11.209 -89.708,-18.959c2.024,-7.962 3.609,-16.03 4.75,-24.166c1.14,-8.137 156,31.708 162.5,36.791c2.375,2 -0.209,12.084 -4.209,23.417Z" style="fill-opacity:0.1;fill-rule:nonzero;"/><path d="M1976.04,1159.38c-9.62,2.901 -19.682,4.058 -29.709,3.417c-29.166,-5.084 7.625,-41.667 7.625,-41.667l15.334,-2.375c6.416,9.875 12.958,25.292 6.75,40.625Z" style="fill-opacity:0.1;fill-rule:nonzero;"/><path d="M1721.83,1029.58c0,0 -49.458,-1.25 -67.208,19.042c-17.75,20.292 -13.958,75 -13.958,75c-0,0 -3.709,109.542 24.083,170.833c0.916,1.978 1.021,4.238 0.292,6.292c-0.292,0.75 -0.292,0.292 -0.292,0.292c0,-0 -17.75,79.916 -35.5,93.875c-17.75,13.958 38.042,30.458 104.167,38.041c66.125,7.584 92.583,26.625 92.583,26.625c0,0 11.417,-12.5 12.5,-40.583c1.083,-28.083 -17.625,-232.125 -17.625,-232.125c0,0 69.75,17.75 111.625,-3.792c0,0 19.042,10.167 36.792,-17.75c17.75,-27.916 -12.5,-58.333 -12.5,-58.333c-0,0 -27.917,27.917 -105.292,-8.875c-77.375,-36.792 -105.625,-69.792 -129.667,-68.542Z" style="fill:#b45181;fill-rule:nonzero;"/><path d="M1342.58,1767.83l-15.208,0l0,21.584l15.208,34.25c0,-0 20.292,3.791 21.584,3.791c1.291,0 17.75,-3.791 17.75,-3.791l5.083,-8.875c0,-0 -55.833,-21.625 -44.417,-46.959Z" style="fill:#e6e6f0;fill-rule:nonzero;"/><path d="M1819.5,1788.12l-22.833,50.75l96.416,45.833l76.125,2.542c0,0 6.334,-17.75 -19.041,-26.625l-20.292,-3.792c-0,0 -26.625,-48.208 -29.167,-70.833c0,0 -25.375,5.083 -29.166,24.083c-0.042,-0.416 -35.542,17.334 -52.042,-21.958Z" style="fill:#b45181;fill-rule:nonzero;"/><path d="M1331.17,1762.75l-7.75,6.333l-34.084,27.917l78.625,104.167c0,-0 44.375,19.041 64.709,-0c-0,-0 12.5,-12.5 -15.209,-22.834c0,0 -21.583,3.792 -21.583,-17.75c0,-21.541 5.083,-44.375 12.5,-49.458c0,0 -19.042,-6.333 -24.083,-1.25c-3.88,4.275 -7.288,8.954 -10.167,13.958c-2.879,5.004 -45.5,-17.958 -42.958,-61.083Z" style="fill:#b45181;fill-rule:nonzero;"/><path d="M1718.04,963.625c-1.289,6.435 -2.987,12.781 -5.084,19c13.614,32.75 51.33,48.956 84.459,36.292c3.344,-3.45 6.922,-6.666 10.708,-9.625c3.786,-2.96 -81.208,-91.334 -90.083,-45.667Z" style="fill-opacity:0.1;fill-rule:nonzero;"/><path d="M1711.04,1133.04c-0,-0 39.333,52 96.416,53.291" style="fill-opacity:0.1;fill-rule:nonzero;"/><g opacity="0.1"><path d="M1946.12,1183.96c-0.802,-0.223 -1.582,-0.516 -2.333,-0.875c-1.223,0.639 -2.473,1.236 -3.75,1.792c2.059,-0.04 4.104,-0.348 6.083,-0.917Z" style="fill-rule:nonzero;"/><path d="M1959.62,1112.21c-1.38,-1.772 -2.855,-3.469 -4.417,-5.083c-1.562,-1.614 -8.333,8.333 -28.916,9.917c11.338,1.126 22.781,-0.534 33.333,-4.834Z" style="fill-rule:nonzero;"/><path d="M1832.17,1186.88l0.25,2.708c16.732,3.1 33.736,4.496 50.75,4.167c-17.184,-0.626 -34.265,-2.928 -51,-6.875Z" style="fill-rule:nonzero;"/><path d="M1744.67,1433.04c-65.959,-7.625 -121.75,-24.084 -104.167,-38.042c17.583,-13.958 35.5,-93.875 35.5,-93.875c-0,0 -0,0.458 0.292,-0.292c0.729,-2.054 0.624,-4.314 -0.292,-6.291c-27.792,-61.459 -24.083,-170.834 -24.083,-170.834c-0,0 -3.792,-54.541 13.958,-75c13.208,-15.125 44,-18.25 58.875,-18.875c-1.387,-0.107 -2.78,-0.107 -4.167,0c-1.386,0.108 -49.458,-1.25 -67.208,19.042c-17.75,20.292 -13.958,75 -13.958,75c-0,0 -3.709,109.542 24.083,170.833c0.916,1.978 1.021,4.238 0.292,6.292c-0.292,0.75 -0.292,0.292 -0.292,0.292c-0,-0 -17.625,79.666 -35.542,93.625c-17.916,13.958 38.042,30.458 104.167,38.041c66.125,7.584 92.583,26.625 92.583,26.625c1.328,-1.592 2.5,-3.309 3.5,-5.125c-12.875,-6.208 -39.375,-16.416 -83.541,-21.416Z" style="fill-rule:nonzero;"/></g><circle cx="1776.38" cy="954.75" r="65.958" style="fill:#fdc2cc;"/><path d="M1870.25,925.25c-5.458,13.667 -21.75,18.833 -36.042,22.375c-20.416,5 -42.416,9.917 -61.958,2.167c-2.531,-1.421 -5.454,-1.991 -8.333,-1.625c-2.321,0.93 -4.26,2.62 -5.5,4.791c-21.542,30.667 -18.042,71.542 -23.625,108.625c-1.75,11.542 -4.709,23.459 -12.5,32.084c-15.167,16.666 -43.792,16.041 -57.75,33.75c-9.209,11.666 -9.292,27.875 -9.209,42.75c0,15.861 -0.139,31.736 -0.416,47.625c-0.25,10.416 -0.75,21.208 -5.459,30.458c-8,15.667 -25.833,23.125 -42.291,29.167c-10.25,3.833 -20.834,7.708 -31.834,6.666c-11,-1.041 -22,-8.333 -23.416,-19.333c-1.959,-14.917 13.416,-25.333 24,-36.083c16.916,-17.125 23.875,-42.042 24.5,-66.125c0.595,-9.727 -0.824,-19.472 -4.167,-28.625c-3.875,-9.459 -10.792,-17.417 -14.958,-26.75c-12.834,-28.75 3,-62 21.958,-87.167c18.958,-25.167 42.25,-49.708 46.292,-80.917c0.352,-6.753 1.314,-13.461 2.875,-20.041c2.916,-9.084 9.833,-34.167 17.458,-39.917c12.206,-9.195 26.54,-15.158 41.667,-17.333c11.708,-1.709 23.666,-1.084 35.291,-3.334c13.584,-2.625 26.209,-9.083 39.792,-11.5c29.375,-5.208 61.25,28.917 74.125,55.834c3.542,8.25 12.833,14.083 9.5,22.458Z" style="fill-opacity:0.1;fill-rule:nonzero;"/><path d="M1870.25,922.708c-5.458,13.667 -21.75,18.834 -36.042,22.375c-20.416,5 -42.416,9.917 -61.958,2.167c-2.531,-1.421 -5.454,-1.991 -8.333,-1.625c-2.321,0.931 -4.26,2.62 -5.5,4.792c-21.542,30.666 -18.042,71.541 -23.625,108.625c-1.75,11.541 -4.709,23.458 -12.5,32.083c-15.167,16.667 -43.792,16.042 -57.75,33.75c-9.209,11.667 -9.292,27.875 -9.209,42.75c0,15.861 -0.139,31.736 -0.416,47.625c-0.25,10.417 -0.75,21.208 -5.459,30.458c-8,15.667 -25.833,23.125 -42.291,29.167c-10.25,3.833 -20.834,7.708 -31.834,6.667c-11,-1.042 -22,-8.334 -23.416,-19.334c-1.959,-14.916 13.416,-25.333 24,-36.083c16.916,-17.125 23.875,-42.042 24.5,-66.125c0.595,-9.726 -0.824,-19.472 -4.167,-28.625c-3.875,-9.458 -10.792,-17.417 -14.958,-26.75c-12.834,-28.75 3,-62 21.958,-87.167c18.958,-25.166 42.25,-49.708 46.292,-80.916c0.352,-6.754 1.314,-13.462 2.875,-20.042c2.916,-9.083 9.833,-34.167 17.458,-39.917c12.206,-9.195 26.54,-15.158 41.667,-17.333c11.708,-1.708 23.666,-1.083 35.291,-3.333c13.584,-2.625 26.209,-9.084 39.792,-11.5c29.375,-5.209 61.25,28.916 74.125,55.833c3.542,8.25 12.833,14.083 9.5,22.458Z" style="fill:#f569bc;fill-rule:nonzero;"/><rect x="2083.38" y="795.917" width="1096.54" height="1096.46" style="fill:#f7df1e;fill-rule:nonzero;"/><path d="M1361.73,911.019c0,-56.367 -45.762,-102.13 -102.129,-102.13l-841.545,0c-56.367,0 -102.13,45.763 -102.13,102.13l0,841.545c0,56.367 45.763,102.129 102.13,102.129l841.545,0c56.367,0 102.129,-45.762 102.129,-102.129l0,-841.545Z" style="fill:#3178c6;"/><path d="M1361.73,911.019c0,-56.367 -45.762,-102.13 -102.129,-102.13l-841.545,0c-56.367,0 -102.13,45.763 -102.13,102.13l0,841.545c0,56.367 45.763,102.129 102.13,102.129l841.545,0c56.367,0 102.129,-45.762 102.129,-102.129l0,-841.545Z" style="fill:#3178c6;"/><path d="M963.303,1641.09l0,102.254c16.623,8.521 36.283,14.911 58.98,19.171c22.697,4.261 46.618,6.392 71.766,6.392c24.509,-0 47.791,-2.343 69.849,-7.031c22.057,-4.686 41.399,-12.409 58.021,-23.167c16.623,-10.756 29.783,-24.817 39.479,-42.179c9.696,-17.362 14.546,-38.824 14.546,-64.387c-0,-18.534 -2.77,-34.777 -8.312,-48.73c-5.541,-13.953 -13.532,-26.361 -23.976,-37.226c-10.441,-10.864 -22.962,-20.612 -37.561,-29.239c-14.598,-8.628 -31.061,-16.776 -49.389,-24.444c-13.426,-5.54 -25.467,-10.918 -36.124,-16.136c-10.656,-5.221 -19.713,-10.546 -27.172,-15.978c-7.46,-5.433 -13.214,-11.185 -17.262,-17.255c-4.048,-6.073 -6.075,-12.942 -6.075,-20.612c0,-7.029 1.812,-13.367 5.436,-19.012c3.623,-5.646 8.738,-10.491 15.344,-14.54c6.607,-4.046 14.704,-7.189 24.294,-9.426c9.592,-2.237 20.246,-3.354 31.969,-3.354c8.523,-0 17.527,0.639 27.011,1.916c9.484,1.279 19.02,3.25 28.612,5.911c9.59,2.664 18.913,6.02 27.972,10.066c9.056,4.048 17.421,8.734 25.093,14.061l-0,-95.544c-15.557,-5.964 -32.553,-10.384 -50.987,-13.26c-18.435,-2.876 -39.588,-4.314 -63.455,-4.314c-24.297,-0 -47.313,2.61 -69.05,7.829c-21.737,5.219 -40.864,13.367 -57.382,24.444c-16.517,11.079 -29.569,25.191 -39.159,42.34c-9.59,17.148 -14.386,37.651 -14.386,61.511c0,30.463 8.792,56.453 26.374,77.969c17.581,21.515 44.273,39.729 80.078,54.642c14.065,5.752 27.172,11.395 39.32,16.935c12.147,5.539 22.644,11.291 31.486,17.255c8.844,5.965 15.824,12.462 20.941,19.493c5.114,7.028 7.672,15.017 7.672,23.966c-0,6.603 -1.6,12.727 -4.796,18.373c-3.197,5.645 -8.046,10.543 -14.546,14.698c-6.499,4.155 -14.598,7.402 -24.294,9.745c-9.698,2.345 -21.045,3.515 -34.046,3.515c-22.164,0 -44.114,-3.887 -65.853,-11.663c-21.737,-7.774 -41.877,-19.437 -60.418,-34.989Zm-171.902,-251.937l131.175,0l0,-83.913l-365.623,-0l0,83.913l130.534,0l-0,373.626l103.914,-0l0,-373.626Z" style="fill:#fff;"/><path d="M2371.75,1712.21l83.917,-50.791c16.208,28.708 30.916,53 66.25,53c33.875,-0 55.208,-13.25 55.208,-64.75l0,-350.375l103.042,-0l-0,351.791c-0,106.709 -62.5,155.292 -153.834,155.292c-82.416,0 -130.25,-42.708 -154.541,-94.208m364.333,-11.042l83.875,-48.583c22.083,36.083 50.792,62.5 101.583,62.5c42.709,-0 69.917,-21.334 69.917,-50.792c0,-35.333 -27.958,-47.833 -75,-68.458l-25.75,-11.042c-74.333,-31.625 -123.667,-71.375 -123.667,-155.292c0,-77.291 58.875,-136.166 150.875,-136.166c65.5,-0 112.5,22.833 146.459,82.416l-80.209,51.542c-17.666,-31.667 -36.791,-44.167 -66.25,-44.167c-30.166,0 -49.333,19.125 -49.333,44.167c0,30.917 19.125,43.417 63.292,62.5l25.75,11.042c87.5,37.5 136.916,75.791 136.916,161.916c0,92.75 -72.875,143.542 -170.833,143.542c-95.833,0 -157.5,-45.833 -187.5,-105.25" style="fill-rule:nonzero;"/><path d="M3660.92,2500.88c-0,0 -42.792,3 -69.209,-42.833c-5.163,-9.229 -11.264,-17.9 -18.208,-25.875c-8.527,-13.983 -12.96,-30.082 -12.792,-46.459c1.459,-33.958 -33.958,-219.958 -33.958,-219.958c0,0 4.417,-70.833 -31,-115.125c-23.333,-29.167 -56.875,-112.5 -77.083,-166.333c1.355,1.208 2.986,2.067 4.75,2.5l-0.834,-4.625l0.834,-0l-10.459,-57.459c-15.226,-17.503 -28.061,-36.951 -38.166,-57.833l2.375,-0.5l31.333,-6.583c0,-0 50.917,-72.375 54.167,-107.959l10.041,0c47.131,-0.257 94.237,2.205 141.084,7.375c-0,-0.208 -0.334,-1.125 -0.75,-2.583c-1.984,-7.161 -3.515,-14.439 -4.584,-21.792l2.917,0l29.167,-1.916c-0,-0 100.375,-112.167 63.458,-132.834c-36.917,-20.666 -75.292,93 -75.292,93l-12.5,2.25l-3.375,0.625c0.334,-0.5 0.667,-0.958 1.042,-1.416c0.375,-0.459 -163.833,-7.334 -189.125,-47.25c0,-0 -72.333,-57.584 -75.292,-95.834c-1.083,-16.153 -11.141,-30.403 -26,-36.833c-8.936,-4.265 -18.834,-6.119 -28.708,-5.375l-33.875,2.333l2.375,4.167l-0.958,0c-2.126,-4.87 -3.908,-9.882 -5.334,-15l0.709,0c-0.25,-1.042 -0.459,-2.083 -0.667,-3.125c35.863,-8.458 61.413,-40.733 61.413,-77.58c-0,-6.951 -0.909,-13.872 -2.705,-20.587c3.315,0.426 6.675,0.327 9.959,-0.291c12.5,-2.542 21.291,-15.209 21.625,-27.875l-0,-2.959c-0.253,-12.881 -6.305,-24.985 -16.459,-32.916c-6.75,-5.625 -14.833,-9.625 -20.833,-15.875c-7.292,-7.459 -11.292,-17.459 -16.958,-26.25c-9.491,-14.54 -23.574,-25.499 -40,-31.125c-12.209,-4.167 -27.209,-4.584 -36.584,4.166c-4.833,4.542 -7.625,11.125 -13.041,14.959c-7.792,5.583 -18.375,3.916 -27.917,5.041c-17.53,2.697 -32.601,13.981 -40.125,30.042c-4.677,9.912 -6.934,20.795 -6.583,31.75c-0.103,7.516 0.793,15.012 2.666,22.292c1.834,7.25 4.542,14.25 6.542,21.5c4.167,15 5.125,30.791 9.917,45.583c3.219,10.977 9.648,20.745 18.458,28.042l-1.417,6.083c-0.916,0 -23.916,5.125 -39.791,39.833c-12.5,27.375 -55.042,55.625 -73.75,67.042c-7.046,4.311 -12.065,11.284 -13.917,19.333c-1.797,8.052 -2.594,16.295 -2.375,24.542c-0.333,17.792 3.375,42.417 17.667,73.625c32.458,70.833 56.083,101.833 56.083,101.833c-0,0 1.792,21.709 1.917,44.584c-0,17.041 -1.25,34 -4.875,42.5c-3.084,7.166 -4.167,25.458 -3.917,46.375c-0,40.083 3.917,92.375 3.917,92.375c-0,-0 11.291,2.166 28.75,4.708l10.875,191.333c1.366,23.164 -6.08,46.008 -20.834,63.917c-7.628,9.422 -16.436,17.825 -26.208,25c-31,22.125 -97.417,255.375 -97.417,255.375c0,0 3.25,0 8.584,0.625l-20.417,56.958c-0,0 81.583,62.5 131.208,45.417c5.375,-1.751 11.018,-2.541 16.667,-2.333c9.792,-0 30.75,-7.75 19.083,-17.959c-22.528,-20.747 -43.776,-42.843 -63.625,-66.166c1.597,0.781 3.129,1.686 4.584,2.708l-0,-0.458l0.708,0.458c0,0 0,-2.292 0.542,-6.042l-0.709,-0.25c1.5,-15.333 6.25,-54.166 15.667,-58.666c11.792,-5.917 98.917,-178.625 98.917,-178.625l87.083,-224.375c0,-0 69.375,119.583 128.417,140.208l-0,50c-0,-0 32.458,147.625 44.291,163.833c11.834,16.209 0,81.167 0,81.167c2.335,2.672 5.01,5.026 7.959,7l-9.459,53.5c0,-0 67.917,-2.958 183.042,32.458c-0.083,0.209 44.208,-18.958 7.292,-42.583Zm-271.584,-772l-14.375,3.583l-2.833,0.709c-0.292,-1.792 -0.5,-2.834 -0.5,-2.834c-3.298,1.489 -6.845,2.351 -10.458,2.542c-5.096,-16.14 -8.038,-32.882 -8.75,-49.792c-4.837,-20.238 -7.78,-40.883 -8.792,-61.666c0,-10.75 1.792,-20.125 5.833,-25.417l4.792,0.375l3.333,3.167l0.25,0.208l1.709,1.542l1.791,1.583l0.292,0.25l1.917,1.708l0.333,0.292l1.958,1.667l2.209,1.833l0.5,0.417l2.333,1.875l2.292,1.833l0.541,0.417l2.542,1.916l0.542,0.375l2.416,1.792l0.417,0.292l2.75,1.958l0.667,0.458l2.916,2l0.25,0l2.834,1.875l0.666,0.459l3.042,1.958l0.667,0.417l2.833,1.75l0.542,0.333l3.25,1.917l0.791,0.458l3.375,1.875l0.25,0l3.292,1.75l0.792,0.417l3.5,1.75l0.708,0.333l3.25,1.5l0.625,0.292l3.667,1.583l0.875,0.375l3.791,1.542c-23.541,25.916 -35.625,86.333 -35.625,86.333Z" style="fill:url(#_Linear1);fill-rule:nonzero;"/><path d="M3025.25,2429.54l-27.375,76.375c0,-0 75,57.5 123.75,45.583c7.345,-1.828 14.829,-3.04 22.375,-3.625c10.083,-0.75 27.458,-8.125 16.667,-17.458c-34.584,-30.25 -80.709,-86.459 -80.709,-86.459l-54.708,-14.416Z" style="fill:#4f4d59;fill-rule:nonzero;"/><path d="M3480.62,2422.33l-12.958,73.5c-0,0 66.291,-2.875 178.708,31.709c0,-0 43.25,-18.75 7.208,-41.667c0,0 -41.666,2.875 -67.708,-41.667c-26.042,-44.541 -41.667,-38.916 -41.667,-38.916l-63.583,17.041Z" style="fill:#4f4d59;fill-rule:nonzero;"/><path d="M3137.54,1889.17l12.5,223.666c1.369,23.825 -6.534,47.279 -22.042,65.417c-7.01,8.331 -14.998,15.788 -23.792,22.208c-30.25,21.625 -95.125,249.292 -95.125,249.292c0,0 73.5,4.167 93.667,18.75c0,0 4.167,-57.625 15.833,-63.417c11.667,-5.791 96.542,-174.375 96.542,-174.375l85.042,-219.041c-0,-0 67.708,116.666 125.375,136.916l-0,49c-0,0 31.708,144.125 43.25,159.959c11.541,15.833 -0,79.166 -0,79.166c-0,0 33.333,41.667 109.5,-2.875c-0,0 -24.5,-27.375 -23.042,-60.541c1.458,-33.167 -33.333,-214.709 -33.333,-214.709c-0,0 4.166,-69.166 -30.25,-112.5c-34.417,-43.333 -91.625,-208.875 -91.625,-208.875l-39.667,-85.333l-222.833,137.292Z" style="fill:#c48c96;fill-rule:nonzero;"/><g opacity="0.1"><path d="M3023.08,2449.71c0,0 64.834,-227.666 95.125,-249.291c9.292,-6.811 17.691,-14.762 25,-23.667c14.784,-17.893 22.234,-40.749 20.834,-63.917l-12.709,-223.708l212.5,-131l-2.875,-6.208l-222.583,137.25l12.708,223.708c1.4,23.168 -6.049,46.024 -20.833,63.917c-7.309,8.905 -15.708,16.856 -25,23.666c-30.208,21.584 -95.125,249.25 -95.125,249.25c0,0 73.5,4.167 93.667,18.75c-0,0 -0,-2.25 0.541,-5.875c-28.375,-9.75 -81.25,-12.875 -81.25,-12.875Z" style="fill-rule:nonzero;"/><path d="M3482.79,2436.75c-0,0 11.541,-63.417 -0,-79.167c-11.542,-15.75 -43.25,-159.958 -43.25,-159.958l-0,-49.083c-57.625,-20.167 -125.375,-136.917 -125.375,-136.917l-5,13.083c19.541,31 71.666,107.917 117.458,123.917l0,49c0,0 31.708,144.125 43.25,159.958c11.542,15.834 0,79.167 0,79.167c0,0 16.083,20.25 51.583,17.5c-26.541,-2.208 -38.666,-17.5 -38.666,-17.5Z" style="fill-rule:nonzero;"/></g><path d="M3633.38,1638.42l-28.292,1.875l-14.916,1l-0,-36.042l19.583,-3.542l12.125,-2.208c0,0 37.5,-110.958 73.5,-90.792c36,20.167 -62,129.709 -62,129.709Z" style="fill:#714b4f;fill-rule:nonzero;"/><path d="M3179.46,1341.38c0,0 -18.75,72.042 -24.5,116.667c-5.75,44.625 134,8.666 134,8.666c0,0 -53.333,-64.833 -23.041,-99.416l-86.459,-25.917Z" style="fill:#714b4f;fill-rule:nonzero;"/><path d="M3330.75,1641.38l2.875,27.375l-44.667,-2.875l-44.666,-38.917l-44.667,-125.416l-28.75,-44.709l-21.625,-27.375l8.667,-33.333c-0,0 3.958,3.458 10.625,8.542c21.958,16.666 73.416,51.708 111.041,42.041c1.74,-0.438 3.451,-0.981 5.125,-1.625l56.209,96.542l-10.167,99.75Z" style="fill:#e6e6f0;fill-rule:nonzero;"/><path d="M3169.38,1387.67c0,-0 -23.042,4.166 -38.917,38.916c-12.166,26.584 -53.333,54.167 -71.708,65.292c-7.079,4.322 -12.117,11.33 -13.958,19.417c-3.709,16.416 -5.125,47.041 15.041,91.083c31.709,69.167 54.75,99.417 54.75,99.417c0,-0 5.75,69.166 -2.875,89.333c-8.625,20.167 0,131.125 0,131.125c0,0 151.292,28.833 201.75,0c50.459,-28.833 43.25,-139.792 43.25,-139.792c0,0 47.542,100.875 64.834,103.75l-10.084,-56.208c0,0 -56.208,-60.542 -59.083,-138.333c-0,-0 -17.292,-70.625 -2.875,-89.334c-0,0 243.542,20.167 257.958,2.875c0,0 -159.958,-7.208 -184.458,-46.125c-0,0 -70.625,-56.208 -73.5,-93.666c-0.851,-14.282 -9.044,-27.147 -21.625,-33.959c-9.8,-5.575 -21.051,-8.086 -32.292,-7.208l-32.541,2.25c-0,0 56.208,99.417 53.333,112.5c-2.875,13.083 2.875,118.167 2.875,118.167c-0,-0 -65.042,-139.792 -93.667,-155.625c-28.625,-15.834 -62,-81 -62,-81l5.75,-32.917" style="fill-opacity:0.1;fill-rule:nonzero;"/><path d="M3330.75,1641.38l2.875,27.375l-44.667,-2.875l-44.666,-38.917l-44.667,-125.416l-28.75,-44.709l-21.625,-27.375l8.667,-33.333c-0,0 3.958,3.458 10.625,8.542l-2,11.375c-0,-0 33.333,65.083 61.958,80.958c28.625,15.875 93.667,155.625 93.667,155.625c-0,0 -5.75,-105.208 -2.875,-118.167c1.958,-8.791 -23.292,-57.375 -39.709,-87.75c1.74,-0.438 3.451,-0.981 5.125,-1.625l56.209,96.542l-10.167,99.75Z" style="fill-opacity:0.1;fill-rule:nonzero;"/><path d="M3605.08,1640.29l-14.916,1l-0,-36.042l19.583,-3.542c-6.833,9.042 -6.583,25.042 -4.667,38.584Z" style="fill-opacity:0.1;fill-rule:nonzero;"/><path d="M3169.38,1383.38c0,0 -23.042,4.167 -38.917,38.917c-12.166,26.583 -53.333,54.166 -71.708,65.291c-7.079,4.322 -12.117,11.33 -13.958,19.417c-3.709,16.417 -5.125,47.042 15.041,91.083c31.709,69.167 54.75,99.417 54.75,99.417c0,0 5.75,69.167 -2.875,89.333c-8.625,20.167 0,131.125 0,131.125c0,0 151.292,28.834 201.75,0c50.459,-28.833 43.25,-139.791 43.25,-139.791c0,-0 47.5,100.708 64.834,103.791l-10.084,-56.208c0,0 -56.208,-60.542 -59.083,-138.333c0,-0 -17.292,-70.625 -2.875,-89.334c0,0 56.208,60.542 119.625,59.084c46.212,-0.278 92.401,2.128 138.333,7.208c45.933,5.08 -14.416,-46.125 0,-63.417c0,0 -159.958,-7.208 -184.458,-46.125c0,0 -70.625,-56.208 -73.5,-93.666c-0.851,-14.282 -9.044,-27.147 -21.625,-33.959c-9.8,-5.575 -21.051,-8.086 -32.292,-7.208l-32.541,2.25c-0,0 56.208,99.417 53.333,112.5c-2.875,13.083 2.875,118.167 2.875,118.167c0,-0 -65.042,-139.875 -93.667,-155.709c-28.625,-15.833 -62,-80.833 -62,-80.833l5.75,-32.917" style="fill:#c48c96;fill-rule:nonzero;"/><path d="M3137.54,1534.67c-0,-0 34.583,116.666 54.75,131.125c20.166,14.458 142.666,87.916 178.708,70.625c0,-0 8.667,43.25 -4.167,53.333c0,0 -134.375,-5.25 -135.458,-5.75c0,0 -87.917,-11.542 -102.333,-54.75c-14.417,-43.208 -31.709,-116.667 -31.709,-116.667l40.209,-77.916Z" style="fill-opacity:0.1;fill-rule:nonzero;"/><ellipse cx="3322.12" cy="1659.33" rx="5.042" ry="7.208" style="fill:#ba7855;"/><ellipse cx="3336.5" cy="1709.75" rx="5.042" ry="7.208" style="fill:#ba7855;"/><g opacity="0.1"><path d="M3121.83,1916.38c0,0 -8.666,-110.958 0,-131.125c8.667,-20.167 2.875,-89.333 2.875,-89.333c0,-0 -23.041,-30.25 -54.75,-99.417c-20.208,-44.042 -18.75,-74.667 -15.041,-91.083c1.841,-8.087 6.879,-15.095 13.958,-19.417c18.375,-11.25 59.5,-38.708 71.708,-65.292c8.959,-19.5 20.167,-29.375 28.25,-34.291l0.542,-3.167c0,-0 -23.042,4.167 -38.917,38.917c-12.166,26.583 -53.333,54.166 -71.708,65.291c-7.079,4.322 -12.117,11.33 -13.958,19.417c-3.709,16.417 -5.125,47.042 15.041,91.083c31.709,69.167 54.75,99.417 54.75,99.417c0,-0 5.75,69.167 -2.875,89.333c-8.625,20.167 0,131.125 0,131.125c0,0 108.084,20.584 172,9.542c-64.541,7.708 -161.875,-11 -161.875,-11Z" style="fill-rule:nonzero;"/><path d="M3316.33,1534.67c-1.958,8.875 0,61.083 1.625,93.083c6.959,14.208 11.334,23.667 11.334,23.667c-0,-0 -5.75,-105.209 -2.875,-118.167c2.75,-12.5 -47.875,-102.75 -52.917,-111.667l-10.5,0.709c0,-0 56.25,99.416 53.333,112.375Z" style="fill-rule:nonzero;"/><path d="M3479.21,1655.71c-63.416,1.459 -119.625,-59.083 -119.625,-59.083c-1.685,2.347 -2.915,4.99 -3.625,7.792c16.667,15.5 62.5,53.875 113.167,52.708c46.212,-0.278 92.401,2.129 138.333,7.208c45.933,5.08 -0.291,-0.958 -0.75,-2.583c-42.355,-4.379 -84.92,-6.396 -127.5,-6.042Z" style="fill-rule:nonzero;"/><path d="M3366.71,1776.75c0,0 0.584,9 0.25,22.5c15,29.75 42.292,80.625 54.5,82.667l-2.125,-11.834c-20.958,-26.333 -52.625,-93.333 -52.625,-93.333Z" style="fill-rule:nonzero;"/></g><path d="M3407.12,1762.21l-30.625,6.459l-24.167,5.083l12.959,-36.042l9.041,-2.25l14.042,-3.5c0,0 20.167,-100.875 60.542,-93.666c40.375,7.208 -41.792,123.916 -41.792,123.916Z" style="fill:#714b4f;fill-rule:nonzero;"/><path d="M3376.54,1768.79l-24.167,5.083l12.958,-36.042l9.042,-2.25c2.004,10.949 2.731,22.093 2.167,33.209Z" style="fill-opacity:0.1;fill-rule:nonzero;"/><path d="M3137.54,1531.79c-0,-0 34.583,116.666 54.75,131.125c20.166,14.458 142.666,87.916 178.708,70.625c0,-0 8.667,43.25 -4.167,53.333c0,0 -134.375,-5.25 -135.458,-5.75c0,0 -87.917,-11.542 -102.333,-54.75c-14.417,-43.208 -31.709,-116.667 -31.709,-116.667l40.209,-77.916Z" style="fill:#c48c96;fill-rule:nonzero;"/><path d="M3180.88,1344.46c0,0 -2.917,11.292 -6.833,27.709c16.35,30.978 51.701,47.273 85.875,39.583c-3.459,-14.792 -2.709,-29.75 7.416,-41.333l-86.458,-25.959Z" style="fill-opacity:0.1;fill-rule:nonzero;"/><circle cx="3241.42" cy="1332.92" r="77.833" style="fill:#714b4f;"/><path d="M3309,1311.5c5.637,1.575 11.544,1.944 17.333,1.083c12.285,-3.324 20.931,-14.482 21.084,-27.208c-0.222,-12.573 -6.125,-24.393 -16.042,-32.125c-6.583,-5.5 -14.458,-9.375 -20.5,-15.5c-7.125,-7.292 -11.042,-17.042 -16.667,-25.625c-9.263,-14.19 -23.009,-24.885 -39.041,-30.375c-11.917,-4.167 -26.542,-4.5 -35.709,4.167c-4.708,4.458 -7.458,10.833 -12.708,14.625c-7.625,5.416 -17.958,3.833 -27.25,4.916c-17.08,2.597 -31.785,13.548 -39.167,29.167c-7.108,15.696 -8.466,33.404 -3.833,50c1.792,7.083 4.458,13.917 6.375,20.833c4.167,14.667 5,30.042 9.667,44.5c4.666,14.459 14.291,28.625 28.875,32.959c-1.15,-16.227 2.058,-32.471 9.291,-47.042c1.192,-3.186 3.544,-5.806 6.584,-7.333c2.596,-0.667 5.32,-0.667 7.916,-0c18.272,2.703 36.926,-1.072 52.709,-10.667c5.541,-3.333 14.166,-14.833 20.041,-15.958c7.584,-1.292 23.125,7.833 31.042,9.583Z" style="fill-opacity:0.1;fill-rule:nonzero;"/><path d="M3309,1308.62c5.637,1.575 11.544,1.944 17.333,1.083c12.285,-3.324 20.931,-14.482 21.084,-27.208c-0.222,-12.573 -6.125,-24.393 -16.042,-32.125c-6.583,-5.5 -14.458,-9.375 -20.5,-15.5c-7.125,-7.292 -11.042,-17.042 -16.667,-25.625c-9.263,-14.19 -23.009,-24.885 -39.041,-30.375c-11.917,-4.167 -26.542,-4.5 -35.709,4.167c-4.708,4.458 -7.458,10.833 -12.708,14.625c-7.625,5.416 -17.958,3.833 -27.25,4.916c-17.08,2.597 -31.785,13.548 -39.167,29.167c-7.108,15.696 -8.466,33.404 -3.833,50c1.792,7.083 4.458,13.917 6.375,20.833c4.167,14.667 5,30.042 9.667,44.5c4.666,14.459 14.291,28.625 28.875,32.959c-1.117,-16.221 2.12,-32.449 9.375,-47c1.191,-3.186 3.544,-5.807 6.583,-7.334c2.597,-0.666 5.32,-0.666 7.917,0c18.271,2.703 36.925,-1.072 52.708,-10.666c5.542,-3.334 14.167,-14.834 20.042,-15.959c7.5,-1.333 23.041,7.792 30.958,9.542Z" style="fill:#503f43;fill-rule:nonzero;"/><path d="M1528.04,1576.83c-8.125,-23.791 -19.834,-54.166 -29.167,-61.083c-0.562,-0.449 -1.178,-0.827 -1.833,-1.125l-1.167,0l0,-29.375l-21.917,3.5c-3.517,-10.617 -6.178,-21.499 -7.958,-32.542c4.31,4.311 10.822,5.614 16.458,3.292c-0.375,-0.583 -0.666,-1.208 -1,-1.833l1,-0.417c-3.449,-6.087 -5.272,-12.962 -5.291,-19.958c0.182,-6.384 1.204,-12.717 3.041,-18.834c3.917,-13.541 10.542,-26.208 14.25,-39.791c2.37,-8.771 3.492,-17.833 3.334,-26.917c0.112,-15.39 -3.4,-30.593 -10.25,-44.375c-1.7,-3.967 -4.364,-7.448 -7.75,-10.125c-3.083,-1.708 -6.254,-3.252 -9.5,-4.625c-5.433,-3.66 -10.115,-8.328 -13.792,-13.75c-15.563,-18.948 -36.405,-32.858 -59.875,-39.958c-6.111,-2.269 -12.735,-2.789 -19.125,-1.5c-14.708,4.166 -20.083,22.208 -32,31.75c-10.542,8.333 -25,9.291 -38.167,12.125c-13.514,2.299 -25.96,8.82 -35.541,18.625c-6.229,7.12 -9.627,16.289 -9.542,25.75c-0.729,8.969 3.272,17.697 10.542,23c8.242,5.419 18.492,6.873 27.916,3.958c-2.484,8.582 -3.745,17.472 -3.745,26.407c-0,44.823 31.737,83.84 75.62,92.968l2.584,4.583c7.88,14.697 13.858,30.336 17.791,46.542c-20.166,11.458 -42.208,22.167 -55.5,23.167c-0.527,5.196 -1.489,10.339 -2.875,15.375c-3.105,12.645 -9.079,24.408 -17.458,34.375c-18.083,20.333 -99.458,174.083 -99.458,174.083c-0,0 -2.584,6.125 -6.75,16.667c-50.542,6.208 -133,15.166 -156.042,10.541l-90.417,-85.916c0,-0 -29.166,22.291 -26.666,49.375l-16.292,-15.5c-0,-0 -85.917,65.541 49.75,108.333l206.417,23.958c-19.667,59.334 -38,128.375 -32.334,165.959l1.709,-0c3.948,-0.007 7.89,-0.314 11.791,-0.917l-0.375,6.667l-19.875,355.958c0,-0 -4.541,65.542 56.5,94.958c0,0 74.625,219.292 45.209,244.167c-0,-0 3.5,1.833 9.375,4.417l-61.375,54.166c-0,0 -45.209,11.292 -70.084,9.042c-9.006,-1.228 -17.597,4.565 -19.833,13.375c0,0.458 0,0.917 -0.25,1.417l0,2.041l0,0.542l0,1.792c0,0.5 0,0.958 0.292,1.458l-0,0.542c0.139,0.527 0.305,1.041 0.5,1.541l-0,0.5c0.208,0.5 0.458,1 0.708,1.5l0,0.334c0.292,0.5 0.583,1 0.917,1.5l0.291,0.416c0.361,0.528 0.764,1.056 1.209,1.584l0.333,0.416c0.458,0.542 0.958,1.042 1.5,1.584l0.25,-0l1.667,1.416l0.375,0.292l2.041,1.458l0.5,0.334l2.375,1.375l0.375,-0l2.542,1.25l0.375,-0l2.958,1.208l0.625,0.25l3.292,1.083l0.542,0l3.541,0.917l0.292,0l4.167,0.792l0.791,-0l4.167,0.625l0.792,-0l4.791,0.458c9.292,0.708 21.834,0.958 36.334,0.917c14.5,-0.042 -0,0.375 -0,0.541l-0,1.792c-0,0.5 -0,0.958 0.291,1.458l0,0.542c0.139,0.528 0.306,1.042 0.5,1.542l0,0.5c0.209,0.5 0.459,1 0.709,1.5l-0,0.333c0.291,0.5 0.583,1 0.916,1.5l0.292,0.417c0.361,0.527 0.764,1.055 1.208,1.583l0.334,0.417c0.458,0.541 0.958,1.041 1.5,1.583l0.208,0l1.667,1.417l0.375,0.291l2.041,1.459l0.5,0.333l2.334,1.375l0.375,0l2.541,1.25l0.375,0l2.959,1.208l0.625,0.25l3.291,1.084l0.542,-0l3.542,0.916l0.291,0l4.167,0.792l0.792,0l4.166,0.625l0.792,0l4.792,0.458c58.791,4.542 246.416,-9.041 246.416,-9.041l0,-1.209c1.875,-8.75 10.875,-59.625 -21.125,-97.25c0.959,-1 1.875,-2.041 2.75,-3.125c0,0 -25,-42.958 -11.291,-56.5c13.708,-13.541 -66.209,-246.583 -66.209,-246.583c0,-0 -42.958,-67.833 -18.083,-144.708c24.875,-76.875 -2.25,-160.5 -2.25,-160.5c0,-0 59.375,-17.584 60.458,-90.625l0,-6.792c1.242,0.181 2.496,0.265 3.75,0.25c0.833,0.059 1.668,0.059 2.5,-0c0.833,-0.059 -11.291,-40.708 2.25,-70.083c13.542,-29.375 42.959,-2.25 70.084,-122.084c19.625,-86.708 36.875,-186.416 44.958,-234.958c3.32,-20.116 1.617,-40.743 -4.958,-60.042Zm-515.917,254.167l-20.625,-19.583c6.833,2.833 14.417,5.583 22.875,8.333l77.708,9.125c-34.666,3.125 -67.041,4.875 -79.958,2.25l0,-0.125Z" style="fill:url(#_Linear2);fill-rule:nonzero;"/><path d="M1208.92,1819.58c-0,0 -159.917,22.209 -193.25,15.542l-88.834,-84.417c0,0 -84.416,64.417 48.875,106.625l248.75,28.875l-15.541,-66.625Z" style="fill:#fdc2cc;fill-rule:nonzero;"/><path d="M1208.92,1819.58c-0,0 -159.917,22.209 -193.25,15.542l-88.834,-84.417c0,0 -84.416,64.417 48.875,106.625l248.75,28.875l-15.541,-66.625Z" style="fill-opacity:0.05;fill-rule:nonzero;"/><path d="M1266.71,2721.33l-77.75,68.834c0,-0 -44.416,11.125 -68.833,8.875c-24.417,-2.25 -35.542,37.75 22.208,42.208c57.75,4.458 242.084,-8.875 242.084,-8.875c-0,0 17.75,-71.083 -35.542,-111.042l-82.167,0Z" style="fill:#47465a;fill-rule:nonzero;"/><path d="M1266.71,2721.33l-77.75,68.834c0,-0 -44.416,11.125 -68.833,8.875c-24.417,-2.25 -35.542,37.75 22.208,42.208c57.75,4.458 242.084,-8.875 242.084,-8.875c-0,0 17.75,-71.083 -35.542,-111.042l-82.167,0Z" style="fill-opacity:0.05;fill-rule:nonzero;"/><path d="M1387.17,2801.67c-0.132,8.1 -1.067,16.167 -2.792,24.083c-1.725,7.916 -184.333,13.333 -242.083,8.875c-27.792,-2.125 -39.584,-12.5 -41.667,-22.417c-2.542,11.417 7.542,26.459 41.667,29.167c57.75,4.458 242.083,-8.875 242.083,-8.875c2.171,-10.127 3.109,-20.481 2.792,-30.833Z" style="fill:#fff;fill-opacity:0.3;fill-rule:nonzero;"/><path d="M1357.71,1462.21c0,0 48.875,68.834 31.084,115.5c-17.792,46.667 93.291,-48.875 93.291,-48.875c0,0 -35.541,-62.458 -17.75,-129.125l-106.625,62.5Z" style="fill:#fdc2cc;fill-rule:nonzero;"/><path d="M1344.38,2748l-77.667,68.833c0,0 -44.416,11.125 -68.833,8.875c-24.417,-2.25 -35.542,37.75 22.208,42.209c57.75,4.458 242.084,-8.875 242.084,-8.875c-0,-0 17.75,-71.084 -35.542,-111.042l-82.25,0Z" style="fill:#47465a;fill-rule:nonzero;"/><path d="M1366.71,2732.46c-11.583,14.292 -27.916,19.792 -45,20.625c-38.833,1.834 -81.583,-20.625 -81.583,-20.625c28.875,-24.416 -44.417,-239.875 -44.417,-239.875c-59.958,-28.875 -55.541,-93.291 -55.541,-93.291l19.416,-349.584l4.917,-87.833l62.208,-37.75l49,37.5l46.5,35.667c3.03,11.346 4.983,22.953 5.834,34.666c5.416,81.625 -59.125,100.834 -59.125,100.834c-0,-0 26.666,82.166 2.208,157.708c-24.458,75.542 17.75,142.167 17.75,142.167c-0,-0 79.958,231 66.667,244.333c-13.292,13.333 11.166,55.458 11.166,55.458Z" style="fill:#565171;fill-rule:nonzero;"/><path d="M1366.71,2732.46c-11.583,14.292 -27.916,19.792 -45,20.625c-38.833,1.834 -81.583,-20.625 -81.583,-20.625c28.875,-24.416 -44.417,-239.875 -44.417,-239.875c-59.958,-28.875 -55.541,-93.291 -55.541,-93.291l19.416,-349.584l4.917,-87.833l62.208,-37.75l49,37.5l46.5,35.667c3.03,11.346 4.983,22.953 5.834,34.666c5.416,81.625 -59.125,100.834 -59.125,100.834c-0,-0 26.666,82.166 2.208,157.708c-24.458,75.542 17.75,142.167 17.75,142.167c-0,-0 79.958,231 66.667,244.333c-13.292,13.333 11.166,55.458 11.166,55.458Z" style="fill-opacity:0.05;fill-rule:nonzero;"/><path d="M1444.33,2759.08c-37.75,46.625 -126.583,0 -126.583,0c1.789,-1.647 3.123,-3.728 3.875,-6.041c16.292,-44.292 -54.958,-256.042 -54.958,-256.042c-59.959,-28.875 -66.667,-97.708 -66.667,-97.708l-15.708,-355.917l-2.042,-46.083l93.458,-35.667l28.709,-10.958l95.625,73.291c4.105,15.184 6.124,30.856 6,46.584c-1.209,71.708 -59.417,89.041 -59.417,89.041c0,0 26.667,82.167 2.208,157.709c-24.458,75.541 17.875,141.958 17.875,141.958c0,0 79.959,231 66.667,244.333c-13.292,13.334 10.958,55.5 10.958,55.5Z" style="fill:#565171;fill-rule:nonzero;"/><path d="M1406.04,2070.54c-19.209,-2.75 -58.084,-25.875 -78.042,-38.417c-7.625,-4.792 -12.5,-8 -12.5,-8c0,0 -20,-55.542 -73.292,-13.333c-17.336,14.081 -36.914,25.151 -57.916,32.75c-8.023,2.84 -16.296,4.919 -24.709,6.208l4.917,-87.833l62.208,-37.75l49,37.5l28.709,-10.959l95.625,73.25c4.105,15.184 6.124,30.856 6,46.584Z" style="fill-opacity:0.1;fill-rule:nonzero;"/><path d="M1526.25,1644.33c-7.917,47.667 -25,145.834 -44.167,230.792c-26.666,117.708 -55.541,91.042 -68.833,119.917c-13.292,28.875 -2.208,68.833 -2.208,68.833c-22.209,2.208 -95.5,-46.625 -95.5,-46.625c-0,-0 -20,-55.542 -73.292,-13.333c-53.292,42.208 -95.5,39.958 -95.5,39.958c-11.125,-73.292 71.083,-268.75 71.083,-268.75c0,-0 79.959,-151.042 97.709,-170.833c8.235,-9.784 14.11,-21.333 17.166,-33.75c1.364,-4.94 2.312,-9.986 2.834,-15.084c28.875,-2.208 100,-51.083 100,-51.083l55.541,-8.875l0,28.875c0.657,0.294 1.274,0.672 1.834,1.125c9.125,6.958 20.833,36.625 28.625,60c6.379,18.925 7.996,39.134 4.708,58.833Z" style="fill:#e1a0a7;fill-rule:nonzero;"/><path d="M1266.71,1852.92l-28.708,-3.334l-220.042,-25.541c-133.333,-42.209 -48.875,-106.625 -48.875,-106.625l88.834,84.416c25.625,5.125 126.166,-6.833 171.208,-12.5c13.5,-1.75 22.042,-2.916 22.042,-2.916l15.541,66.5Z" style="fill:#fdc2cc;fill-rule:nonzero;"/><path d="M1482.08,1553.08c0,0 -57.75,-46.625 -144.541,104.375c-86.792,151 -106.625,126.584 -106.625,126.584c-0,-0 17.75,66.666 8.875,79.958c-0,0 59.958,-4.458 82.166,0c22.209,4.458 159.917,-168.792 159.917,-168.792c0,0 71.292,-97.708 0.208,-142.125Z" style="fill-opacity:0.1;fill-rule:nonzero;"/><path d="M1479.88,1544.21c0,0 -57.75,-46.625 -144.375,104.375c-86.625,151 -106.625,126.584 -106.625,126.584c0,-0 68.833,75.5 91.042,79.958c22.208,4.458 159.916,-168.792 159.916,-168.792c0,0 71.125,-97.708 0.042,-142.125Z" style="fill-opacity:0.1;fill-rule:nonzero;"/><path d="M1237.96,1849.71c0.917,-16.458 -5.291,-45.375 -8.875,-60.375c13.5,-1.75 22.042,-2.916 22.042,-2.916l15.542,66.666l-28.709,-3.375Z" style="fill-opacity:0.1;fill-rule:nonzero;"/><path d="M1482.08,1548.62c0,0 -57.75,-46.625 -144.541,104.417c-86.792,151.041 -106.625,126.583 -106.625,126.583c-0,0 17.75,66.667 8.875,79.958c-0,0 59.958,-4.458 82.166,0c22.209,4.459 159.917,-168.791 159.917,-168.791c0,-0 71.292,-97.75 0.208,-142.167Z" style="fill:#e1a0a7;fill-rule:nonzero;"/><path d="M1466.71,1404.25l-106.791,62.125c4.519,6.555 8.691,13.342 12.5,20.333c6.143,1.248 12.397,1.876 18.666,1.875c28.459,0 41.667,-29.875 58.875,-50c-1.25,-16 11.834,-16.416 16.75,-34.333Z" style="fill-opacity:0.1;fill-rule:nonzero;"/><circle cx="1388.79" cy="1390.96" r="93.292" style="fill:#fdc2cc;"/><path d="M1270.88,1315.5c9.407,-9.647 21.635,-16.067 34.917,-18.333c12.958,-2.792 27.166,-3.625 37.5,-11.917c11.708,-9.375 16.958,-27.208 31.416,-31.208c6.281,-1.257 12.79,-0.737 18.792,1.5c23.061,6.97 43.542,20.633 58.833,39.25c3.619,5.342 8.231,9.939 13.584,13.541c3.189,1.349 6.304,2.865 9.333,4.542c3.317,2.636 5.924,6.06 7.583,9.958c10.407,21.022 12.808,45.131 6.75,67.792c-3.625,13.375 -10.125,25.792 -14,39.125c-3.875,13.333 -4.833,28.417 2.209,40.333c-6.834,3.5 -15.459,-0.916 -19.75,-7.291c-4.292,-6.375 -5.584,-14.209 -7.834,-21.584c-4.425,-14.476 -12.76,-27.454 -24.083,-37.5c-7,-6.166 -19.5,-10.333 -24.375,-2.375c-1.875,3.084 -1.75,7.042 -3.375,10.25c-3.167,6.292 -12.5,7.542 -18.458,4.167c-5.866,-4.049 -9.99,-10.168 -11.542,-17.125c-9.125,-30.958 -24.75,-50.417 -57.833,-37.208c-12.5,4.916 -26.875,8.333 -38.75,-0c-15.209,-11.167 -12.167,-33.292 -0.917,-45.917Z" style="fill-opacity:0.1;fill-rule:nonzero;"/><path d="M1270.88,1313.25c9.407,-9.647 21.635,-16.067 34.917,-18.333c12.958,-2.792 27.166,-3.625 37.5,-11.917c11.708,-9.375 16.958,-27.208 31.416,-31.208c6.281,-1.257 12.79,-0.737 18.792,1.5c23.061,6.97 43.542,20.633 58.833,39.25c3.619,5.342 8.231,9.939 13.584,13.541c3.189,1.349 6.304,2.865 9.333,4.542c3.317,2.636 5.924,6.06 7.583,9.958c10.407,21.022 12.808,45.131 6.75,67.792c-3.625,13.375 -10.125,25.792 -14,39.125c-3.875,13.333 -4.833,28.417 2.209,40.333c-6.834,3.5 -15.459,-0.916 -19.75,-7.291c-4.292,-6.375 -5.584,-14.209 -7.834,-21.584c-4.425,-14.476 -12.76,-27.454 -24.083,-37.5c-7,-6.166 -19.5,-10.333 -24.375,-2.375c-1.875,3.084 -1.75,7.042 -3.375,10.25c-3.167,6.292 -12.5,7.542 -18.458,4.167c-5.866,-4.049 -9.99,-10.168 -11.542,-17.125c-9.125,-30.958 -24.75,-50.417 -57.833,-37.208c-12.5,4.916 -26.875,8.333 -38.75,-0c-15.209,-11.125 -12.167,-33.25 -0.917,-45.917Z" style="fill:#8f5a6a;fill-rule:nonzero;"/><path d="M1492.79,1525.33l-45.125,0c-0,0 -88.834,44.417 -91.042,42.209c-1.5,-1.5 -15.25,1.083 -23.958,2.875c1.363,-4.94 2.311,-9.986 2.833,-15.084c28.875,-2.208 100,-51.083 100,-51.083l55.542,-8.875l-0,28.875c0.626,0.287 1.213,0.651 1.75,1.083Z" style="fill-opacity:0.05;fill-rule:nonzero;"/><path d="M1464.88,2828.29c-0.132,8.1 -1.067,16.167 -2.792,24.083c-1.724,7.916 -184.333,13.333 -242.083,8.875c-27.792,-2.125 -39.583,-12.5 -41.667,-22.417c-2.541,11.417 7.542,26.459 41.667,29.167c57.75,4.458 242.083,-8.875 242.083,-8.875c2.172,-10.127 3.109,-20.481 2.792,-30.833Z" style="fill:#fff;fill-opacity:0.3;fill-rule:nonzero;"/><g opacity="0.05"><path d="M1221.12,2001.71c-29.958,23.75 -56.458,33.334 -73.875,37.5c0,1.667 0.333,3.292 0.583,4.875c0,0 42.209,2.209 95.5,-39.958c8.257,-7.075 18.019,-12.177 28.542,-14.917c-11.625,-5.708 -28.208,-5.333 -50.75,12.5Z" style="fill-rule:nonzero;"/><path d="M1522.54,1585.29c-7.959,-23.375 -19.5,-53 -28.625,-60c-0.56,-0.453 -1.177,-0.831 -1.834,-1.125c-0.657,-0.295 -18.375,0.625 -17.75,1.125c9.125,6.958 18.042,34.416 26,57.75c6.449,18.966 8.11,39.236 4.834,59c-7.917,47.666 -25,145.833 -44.167,230.791c-26.667,117.709 -55.542,91.042 -68.833,119.917c-10.917,23.667 -5.459,54.75 -3.084,65.208c7.183,3.595 15.057,5.599 23.084,5.875c8.027,0.277 -11.125,-39.958 2.208,-68.833c13.333,-28.875 42.208,-2.208 68.833,-119.917c19.292,-85.166 36.25,-183.333 44.167,-230.791c3.276,-19.764 1.615,-40.034 -4.833,-59Z" style="fill-rule:nonzero;"/></g><path d="M1780.67,2000.17c7.635,-6.225 13.202,-14.626 15.958,-24.084c2.083,-9.583 -2,-21.041 -11.167,-24.541c-10.25,-3.917 -21.208,3.166 -29.5,10.375c-8.291,7.208 -17.833,15.375 -28.708,13.833c11.356,-10.294 16.491,-25.842 13.5,-40.875c-0.47,-3.067 -1.767,-5.948 -3.75,-8.333c-5.708,-6.084 -16,-3.459 -22.833,1.333c-21.667,15.25 -27.709,44.667 -27.834,71.167c-2.166,-9.542 -0.333,-19.5 -0.416,-29.167c-0.084,-9.667 -2.75,-20.833 -11,-25.917c-5.116,-2.748 -10.862,-4.113 -16.667,-3.958c-9.75,-0.375 -20.583,0.625 -27.25,7.75c-8.333,8.833 -6.125,23.708 1.083,33.333c7.209,9.625 18.125,15.834 28.209,22.584c8.081,4.804 14.975,11.37 20.166,19.208c0.611,1.087 1.113,2.231 1.5,3.417l61.042,-0c13.677,-6.969 26.347,-15.758 37.667,-26.125Z" style="fill:#6c63ff;fill-rule:nonzero;"/><path d="M1892.79,2782.54c9.708,-9.042 18.833,-19.709 21.666,-32.667c2.834,-12.958 -2.708,-28.542 -15.125,-33.333c-13.875,-5.334 -28.75,4.166 -40,14.041c-11.25,9.875 -24.166,20.834 -38.875,18.75c15.392,-13.959 22.349,-35.037 18.292,-55.416c-0.646,-4.141 -2.403,-8.029 -5.083,-11.25c-7.709,-8.334 -21.709,-4.709 -30.917,1.791c-29.167,20.834 -37.5,60.542 -37.708,96.459c-2.959,-12.959 -0.459,-26.459 -0.542,-39.75c-0.083,-13.292 -3.708,-28 -14.917,-35.167c-6.98,-3.752 -14.829,-5.592 -22.75,-5.333c-13.208,-0.5 -27.916,0.833 -36.916,10.5c-11.209,12 -8.334,32.125 1.458,45.333c9.792,13.208 24.583,21.5 38.208,30.625c10.938,6.52 20.267,15.421 27.292,26.042c0.833,1.484 1.517,3.047 2.042,4.666l82.791,0c18.541,-9.408 35.724,-21.279 51.084,-35.291Z" style="fill:#6c63ff;fill-rule:nonzero;"/><path d="M3752.54,891.036c92.462,-174.148 277.387,-174.148 369.85,-87.074c92.466,87.074 92.466,261.223 0,435.372c-64.724,130.612 -231.156,261.223 -369.85,348.298c-138.694,-87.075 -305.126,-217.686 -369.85,-348.298c-92.462,-174.149 -92.462,-348.298 0,-435.372c92.463,-87.074 277.388,-87.074 369.85,87.074Z" style="fill:#6c63ff;stroke:#535461;stroke-width:12.5px;stroke-linecap:round;stroke-linejoin:round;stroke-miterlimit:1.5;"/><defs><linearGradient id="_Linear1" x1="0" y1="0" x2="1" y2="0" gradientUnits="userSpaceOnUse" gradientTransform="matrix(8.63759e-14,-1410.63,1410.63,8.63759e-14,3350.58,2569.92)"><stop offset="0" style="stop-color:#808080;stop-opacity:0.25"/><stop offset="0.54" style="stop-color:#808080;stop-opacity:0.12"/><stop offset="1" style="stop-color:#808080;stop-opacity:0.1"/></linearGradient><linearGradient id="_Linear2" x1="0" y1="0" x2="1" y2="0" gradientUnits="userSpaceOnUse" gradientTransform="matrix(3.97911e-11,-649839,649839,3.97911e-11,241866,1.27895e+06)"><stop offset="0" style="stop-color:#808080;stop-opacity:0.25"/><stop offset="0.54" style="stop-color:#808080;stop-opacity:0.12"/><stop offset="1" style="stop-color:#808080;stop-opacity:0.1"/></linearGradient></defs></svg>