<?xml version="1.0" encoding="UTF-8" standalone="no"?><!DOCTYPE svg PUBLIC "-//W3C//DTD SVG 1.1//EN" "http://www.w3.org/Graphics/SVG/1.1/DTD/svg11.dtd"><svg width="100%" height="100%" viewBox="0 0 4617 3047" version="1.1" xmlns="http://www.w3.org/2000/svg" xmlns:xlink="http://www.w3.org/1999/xlink" xml:space="preserve" xmlns:serif="http://www.serif.com/" style="fill-rule:evenodd;clip-rule:evenodd;stroke-miterlimit:10;"><path d="M3198.67,1378.29l28.708,-11.25c2.75,-1.084 5.458,-2.25 8.333,-3.375c-97.834,-36.022 -163.212,-129.762 -163.212,-234.017c0,-128.335 99.067,-236.781 226.879,-248.358l-20,100.833l75.917,-99.667l0.666,0c135.548,18.636 231.765,145.489 213.167,281.042c-0.625,4.708 -1.625,9.292 -2.5,13.917c23.375,-18.459 45.292,-38.834 61.708,-62.5c33.334,-48.084 44.625,-107.334 56.125,-179.875c22.792,-143.667 43.334,-288.917 61.834,-434.084c-116.851,-35.255 -191.484,-151.398 -175,-272.333c1.041,-7.583 2.5,-14.958 4.166,-22.25c0.417,-1.833 0.834,-3.667 1.292,-5.458c1.792,-7.042 3.792,-13.959 6.125,-20.834c0.375,-1.125 0.875,-2.166 1.25,-3.25c2.083,-5.708 4.167,-11.333 6.875,-16.666c0.917,-2.084 1.833,-4.167 2.792,-6.125c2.875,-5.959 5.916,-11.792 9.25,-17.459c1.125,-1.875 2.333,-3.666 3.458,-5.541c2.583,-4.167 5.292,-8.334 8.083,-12.209c1.5,-2.083 2.959,-4.166 4.5,-6.208l1.125,-1.625c72.71,-95.167 204.249,-125.127 311,-70.833l-26,131.208l75,-98.5c82.575,69.958 110.239,186.274 68,285.917l0.292,-0c-0.708,1.666 -1.583,3.25 -2.292,4.916c-1.375,3.084 -2.791,6.125 -4.166,9.167c-1.917,3.875 -4.167,7.667 -6.042,11.417c-1.583,2.833 -3.125,5.666 -4.833,8.333c-2.459,4.167 -5.125,7.917 -7.792,11.792c-1.583,2.25 -3.042,4.583 -4.667,6.791c-4.166,5.792 -8.833,11.334 -13.583,16.667c-1.667,1.875 -3.458,3.583 -5.208,5.417c-3.375,3.583 -6.75,7.125 -10.334,10.5c-2.208,2.083 -4.541,4.166 -6.833,6.083c-3.292,2.917 -6.667,5.75 -10.125,8.333c-2.458,1.959 -4.958,3.834 -7.458,5.667c-3.625,2.625 -7.292,5.083 -11,7.542c-2.5,1.625 -5,3.25 -7.542,4.791c-4.167,2.542 -8.542,4.875 -12.917,7.167c-2.208,1.125 -4.166,2.375 -6.625,3.458c-6.583,3.209 -13.333,6.167 -20.208,8.792c-1.292,0.5 -2.667,0.875 -3.958,1.333c-5.75,2.084 -11.542,4.167 -17.417,5.625c-2.542,0.709 -5.125,1.292 -7.708,1.917c-4.792,1.167 -9.625,2.25 -14.5,3.167c-2.778,0.5 -5.653,0.958 -8.625,1.375c-4.792,0.708 -9.625,1.25 -14.5,1.666c-2.875,0.25 -5.709,0.5 -8.625,0.667c-5.25,0.25 -10.542,0.292 -15.834,0.25c-0.347,-0.021 -0.694,-0.021 -1.041,0c-7.834,61.111 -16.056,122.222 -24.667,183.333c46.972,-63.413 121.373,-100.892 200.289,-100.892c58.36,0 114.906,20.497 159.711,57.892l-65.333,110.75l105.041,-69.125c39.701,52.544 56.946,118.766 47.917,184c-3.083,22.913 -9.396,45.275 -18.75,66.417c-39.647,90.516 -129.529,149.273 -228.347,149.273c-105.293,-0 -199.74,-66.708 -234.945,-165.94c-0.958,6.167 -1.875,12.5 -2.833,18.584c-10.167,63.958 -22.792,143.583 -67.625,208.333c-30.375,44 -72.208,76.5 -112.875,105.083c-26.444,18.611 -53.5,36.348 -81.167,53.209c-29.038,26.927 -64.078,46.554 -102.208,57.25c-44.444,22.75 -89.847,43.319 -136.208,61.708l-28.959,11.333c-26.041,10.167 -52.708,20.584 -79.166,31.667c4.166,0.375 8.333,0.708 12.5,1.25c107.288,14.733 193.307,97.691 211.916,204.375l-176.291,96.292l175.75,-7.875c-7.036,38.969 -23.359,75.675 -47.584,107c-82.122,106.305 -236.12,128.166 -344.583,48.916l8.75,16.292c5.833,10.75 11.583,21.458 17.167,32.083c76.375,144.75 81.916,269.75 15.625,352.042l-54.167,-43.542c64.542,-80.083 13.333,-207.375 -22.917,-276.125c-5.5,-10.416 -11.166,-20.833 -16.666,-31.5c-49.042,-90.958 -104.667,-194.041 -82.375,-303.75c33.333,-165.416 212.708,-235.416 357,-291.666Z" style="fill:#f2f2f2;fill-rule:nonzero;"/><path d="M1123.33,2162.54l-22.416,-8.792c-2.167,-0.833 -4.167,-1.792 -6.417,-2.625c76.37,-28.165 127.392,-101.361 127.392,-182.76c-0,-100.216 -77.338,-184.91 -177.142,-193.99l15.625,78.75l-59.25,-77.833l-0.542,-0c-96.078,13.12 -168.471,96.072 -168.471,193.041c-0,8.851 0.603,17.69 1.805,26.459c0.5,3.708 1.291,7.25 1.958,10.875c-18.383,-13.822 -34.615,-30.293 -48.167,-48.875c-25.958,-37.5 -34.875,-83.834 -43.875,-140.459c-17.625,-112.208 -33.625,-225.625 -48,-338.875c91.222,-27.576 149.451,-118.287 136.542,-212.708c-0.833,-5.917 -1.958,-11.667 -3.292,-17.375l-1,-4.167c-1.416,-5.5 -2.958,-10.916 -4.791,-16.166c-0.292,-0.875 -0.667,-1.709 -1,-2.542c-1.625,-4.458 -3.417,-8.833 -5.334,-13.125c-0.75,-1.583 -1.458,-3.208 -2.208,-4.792c-2.25,-4.625 -4.625,-9.166 -7.208,-13.583c-0.875,-1.5 -1.834,-2.917 -2.709,-4.167c-2.041,-3.25 -4.166,-6.458 -6.333,-9.541c-1.167,-1.625 -2.292,-3.292 -3.5,-4.875l-0.875,-1.25c-56.782,-74.31 -159.453,-97.772 -242.875,-55.5l20.333,102.5l-58.625,-76.917c-64.48,54.639 -86.09,145.469 -53.125,223.292l-0.208,-0c0.542,1.291 1.208,2.541 1.792,3.833c1.083,2.417 2.166,4.792 3.333,7.167c1.5,3 3.083,5.958 4.75,8.875c1.208,2.25 2.417,4.458 3.75,6.625c1.917,3.125 4.167,6.166 6.083,9.208c1.25,1.75 2.375,3.583 3.667,5.292c3.333,4.5 6.875,8.833 10.583,13.041c1.292,1.459 2.709,2.792 4.167,4.167c2.625,2.792 5.292,5.542 8.083,8.333c1.709,1.667 3.542,3.209 5.334,4.75c2.583,2.306 5.208,4.514 7.875,6.625c1.916,1.5 3.875,2.959 5.833,4.417c2.833,2.042 5.708,4.167 8.583,5.875c1.959,1.292 3.917,2.542 5.917,3.75c3.292,2 6.667,3.792 10.083,5.583c1.75,0.917 3.417,1.875 5.167,2.75c5.167,2.5 10.417,4.792 15.792,6.834c1,0.416 2.083,0.666 3.083,1.041c4.458,1.625 9,3.125 13.625,4.417c1.958,0.542 4.167,1 6,1.458c3.75,0.917 7.5,1.792 11.333,2.5l6.709,1.084c3.75,0.541 7.541,0.958 11.333,1.291c2.25,0.209 4.458,0.375 6.75,0.5c4.167,0.209 8.333,0.25 12.5,0.209l0.792,-0c6.111,47.833 12.527,95.625 19.25,143.375c-36.664,-49.659 -94.847,-79.024 -156.574,-79.024c-45.518,-0 -89.625,15.968 -124.593,45.107l50.583,86l-82,-53.958c-31.051,41.018 -44.55,92.747 -37.5,143.708c2.419,17.915 7.372,35.395 14.709,51.917c30.97,70.688 101.167,116.573 178.343,116.573c82.225,-0 155.983,-52.086 183.49,-129.573c0.75,4.791 1.458,9.666 2.208,14.5c7.917,50 17.792,112.166 52.792,162.833c23.75,34.333 56.417,59.708 88.167,82.042c20.666,14.555 41.791,28.444 63.375,41.666c22.69,21.028 50.055,36.367 79.833,44.75c34.667,17.75 70.167,33.917 106.417,48.167l22.583,8.875c20.333,7.917 41.167,16.042 61.708,24.708c-3.25,0.292 -6.541,0.542 -9.833,1c-83.749,11.475 -150.92,76.194 -165.5,159.459l137.5,75l-137.25,-6.125c17.151,91.9 98.122,159.157 191.608,159.157c41.31,0 81.57,-13.132 114.934,-37.491c-2.292,4.167 -4.542,8.334 -6.834,12.709c-4.541,8.333 -9.041,16.666 -13.416,25c-59.625,113.041 -63.959,210.708 -12.167,275l42.208,-34c-50.416,-62.5 -10.416,-161.959 17.917,-215.667c4.167,-8.125 8.708,-16.333 13.167,-24.583c38.291,-70.834 81.708,-151.542 64.416,-237.25c-25.875,-128.917 -166.083,-183.417 -278.75,-227.5Z" style="fill:#f2f2f2;fill-rule:nonzero;"/><ellipse cx="2308.33" cy="2948.67" rx="2308.33" ry="97.917" style="fill:#3f3d56;"/><ellipse cx="2308.33" cy="2948.67" rx="2308.33" ry="97.917" style="fill-opacity:0.1;"/><ellipse cx="2308.33" cy="2894.5" rx="2308.33" ry="97.917" style="fill:#3f3d56;"/><path d="M354.167,2859.67c-12.5,-22.959 1.666,-51.084 17.833,-71.584c16.167,-20.5 35.875,-41.666 35.458,-67.875c-0.583,-37.5 -40.416,-59.625 -72.208,-79.5c-23.589,-14.76 -45.351,-32.257 -64.833,-52.125c-8.144,-7.659 -14.884,-16.684 -19.917,-26.666c-6.583,-14.667 -6.375,-31.334 -5.958,-47.417c1.389,-53.5 4.027,-106.944 7.916,-160.333" style="fill:none;fill-rule:nonzero;stroke:#3f3d56;stroke-width:16.67px;"/><path d="M192.125,2351.21c0.913,-19.869 11.929,-37.95 29.167,-47.875l13.083,25.875l-0.375,-31.333c6.239,-1.857 12.748,-2.646 19.25,-2.333c30.89,1.51 55.484,27.337 55.484,58.263c-0,32.001 -26.333,58.334 -58.334,58.334c-32,-0 -58.333,-26.333 -58.333,-58.334c0,-0.866 0.019,-1.732 0.058,-2.597Z" style="fill:#6c63ff;fill-rule:nonzero;"/><path d="M296.417,2747.04c9.885,19.676 30.104,32.145 52.124,32.145c31.175,-0 57.123,-24.992 58.292,-56.145c0.416,-8.081 -0.876,-16.16 -3.791,-23.709c-8.523,-22.708 -30.359,-37.837 -54.614,-37.837c-24.497,0 -46.5,15.431 -54.845,38.462l36.542,29.709l-40.167,-9.334c-0.022,9.292 2.193,18.454 6.459,26.709Z" style="fill:#6c63ff;fill-rule:nonzero;"/><path d="M325.292,2633.5c1.464,0.111 2.932,0.166 4.4,0.166c32.001,0 58.333,-26.332 58.333,-58.333c0,-26.666 -18.284,-50.1 -44.15,-56.583l0.292,24.125l-13.25,-26.208c-0.909,-0.043 -1.819,-0.064 -2.729,-0.064c-32.093,-0 -58.502,26.408 -58.502,58.501c0,31.064 24.742,56.988 55.772,58.438l-0.166,-0.042Z" style="fill:#6c63ff;fill-rule:nonzero;"/><path d="M183.333,2539.04c0.916,0.043 1.833,0.064 2.75,0.064c32.037,0 58.398,-26.361 58.398,-58.398c0,-30.999 -24.683,-56.873 -55.648,-58.333c-10.935,-0.544 -21.802,2.029 -31.333,7.417l10.333,28.333l-21.291,-20.417c-11.384,10.426 -18.176,24.955 -18.875,40.375c-0.283,5.392 0.223,10.796 1.5,16.042c5.958,25.327 28.174,43.75 54.166,44.917Z" style="fill:#6c63ff;fill-rule:nonzero;"/><path d="M200,2366.79c13.5,1.5 26.625,5.708 40.167,6.541c13.541,0.834 28.416,-2.416 37,-12.916c4.625,-5.709 6.916,-12.875 10.791,-19.042c3.712,-5.758 8.776,-10.522 14.75,-13.875c3.76,7.859 5.712,16.462 5.712,25.174c-0,32.001 -26.333,58.333 -58.333,58.333c-26.864,0 -50.422,-18.557 -56.712,-44.674c2.208,0.084 4.417,0.25 6.625,0.459Z" style="fill-opacity:0.1;fill-rule:nonzero;"/><path d="M183.333,2539.04c0.985,0.05 1.971,0.075 2.956,0.075c32.001,-0 58.334,-26.333 58.334,-58.334c-0,-8.675 -1.936,-17.242 -5.665,-25.075c-4.641,3.135 -8.632,7.139 -11.75,11.792c-4.166,6.292 -6.708,13.542 -11.583,19.333c-9.125,10.709 -24.667,14.209 -38.792,13.542c-14.125,-0.667 -27.75,-4.625 -41.666,-5.917c-1.959,0 -3.917,-0.333 -5.875,-0.375c5.929,25.301 28.084,43.732 54.041,44.959Z" style="fill-opacity:0.1;fill-rule:nonzero;"/><path d="M325.292,2633.5c0.996,0.051 1.994,0.077 2.992,0.077c32.001,-0 58.333,-26.333 58.333,-58.334c0,-8.304 -1.773,-16.513 -5.2,-24.076c-4.859,3.159 -9.096,7.185 -12.5,11.875c-4.542,6.416 -7.375,13.791 -12.5,19.708c-9.834,11 -26.417,14.875 -41.375,14.5c-14.959,-0.375 -28.417,-3.875 -42.834,-4.958c7.193,23.516 28.519,40.07 53.084,41.208Z" style="fill-opacity:0.1;fill-rule:nonzero;"/><path d="M296.417,2747.04c9.885,19.676 30.104,32.145 52.124,32.145c31.175,-0 57.123,-24.992 58.292,-56.145c0.416,-8.081 -0.876,-16.16 -3.791,-23.709c-4.818,3.152 -9.143,6.999 -12.834,11.417c-5.583,6.792 -9.208,14.458 -15.666,20.833c-11.959,11.75 -31.25,16.667 -48.417,17.042c-9.925,0.04 -19.844,-0.489 -29.708,-1.583Z" style="fill-opacity:0.1;fill-rule:nonzero;"/><path d="M442.458,2833.25c0,0 -46.166,-1.417 -60.041,-11.333c-13.875,-9.917 -70.834,-21.75 -74.459,-5.834c-3.625,15.917 -69.375,79.167 -17.25,79.417c52.125,0.25 121.084,-8.333 134.959,-16.667c13.875,-8.333 16.791,-45.583 16.791,-45.583Z" style="fill:#656380;fill-rule:nonzero;"/><path d="M289.75,2889.96c52.125,0.417 121.083,-8.333 135,-16.666c10.542,-6.417 14.75,-29.542 16.167,-40.209l1.541,0c0,0 -2.916,37.209 -16.666,45.834c-13.75,8.625 -82.875,17 -134.959,16.666c-15.041,0 -20.25,-5.458 -19.958,-13.416c1.958,4.708 7.708,7.791 18.875,7.791Z" style="fill-opacity:0.2;fill-rule:nonzero;"/><path d="M4395.83,2897.17c-12.5,-22.959 1.667,-51.084 17.834,-71.584c16.166,-20.5 35.875,-41.666 35.458,-67.875c-0.583,-37.5 -40.417,-59.625 -72.208,-79.5c-23.589,-14.76 -45.351,-32.257 -64.834,-52.125c-8.143,-7.659 -14.884,-16.684 -19.916,-26.666c-6.584,-14.667 -6.375,-31.334 -5.959,-47.417c1.361,-53.5 4,-106.944 7.917,-160.333" style="fill:none;fill-rule:nonzero;stroke:#3f3d56;stroke-width:16.67px;"/><path d="M4233.79,2388.71c0.913,-19.869 11.928,-37.95 29.166,-47.875l13.084,25.875l-0.375,-31.333c6.239,-1.857 12.747,-2.646 19.25,-2.333c30.872,1.532 55.442,27.351 55.442,58.261c-0,32.001 -26.333,58.334 -58.333,58.334c-32.001,-0 -58.334,-26.333 -58.334,-58.334c0,-0.865 0.02,-1.73 0.058,-2.595l0.042,0Z" style="fill:#6c63ff;fill-rule:nonzero;"/><path d="M4338.08,2784.54c9.886,19.676 30.104,32.145 52.125,32.145c31.175,-0 57.123,-24.992 58.292,-56.145c0.416,-8.081 -0.876,-16.16 -3.792,-23.709c-8.522,-22.708 -30.358,-37.837 -54.614,-37.837c-24.496,0 -46.499,15.431 -54.844,38.462l36.542,29.709l-40.167,-9.334c-0.023,9.292 2.193,18.454 6.458,26.709Z" style="fill:#6c63ff;fill-rule:nonzero;"/><path d="M4366.96,2671c1.465,0.111 2.932,0.166 4.401,0.166c32,0 58.333,-26.332 58.333,-58.333c0,-26.666 -18.285,-50.1 -44.15,-56.583l0.291,24.125l-13.25,-26.208c-0.909,-0.043 -1.819,-0.064 -2.729,-0.064c-32.093,-0 -58.501,26.408 -58.501,58.501c-0,31.064 24.742,56.988 55.772,58.438l-0.167,-0.042Z" style="fill:#6c63ff;fill-rule:nonzero;"/><path d="M4225,2576.54c0.916,0.043 1.833,0.064 2.75,0.064c32.036,0 58.398,-26.361 58.398,-58.398c0,-30.999 -24.683,-56.873 -55.648,-58.333c-10.935,-0.544 -21.803,2.029 -31.333,7.417l10.333,28.333l-21.292,-20.417c-11.383,10.426 -18.175,24.955 -18.875,40.375c-0.282,5.392 0.223,10.796 1.5,16.042c5.958,25.327 28.175,43.75 54.167,44.917Z" style="fill:#6c63ff;fill-rule:nonzero;"/><path d="M4241.67,2404.29c13.5,1.5 26.625,5.708 40.166,6.541c13.542,0.834 28.417,-2.416 37,-12.916c4.625,-5.709 6.917,-12.875 10.792,-19.042c3.711,-5.758 8.776,-10.522 14.75,-13.875c3.76,7.859 5.712,16.462 5.712,25.174c-0,32.001 -26.333,58.333 -58.334,58.333c-26.864,0 -50.421,-18.557 -56.711,-44.674c2.208,0.084 4.416,0.25 6.625,0.459Z" style="fill-opacity:0.1;fill-rule:nonzero;"/><path d="M4225,2576.54c0.985,0.05 1.97,0.075 2.956,0.075c32.001,-0 58.333,-26.333 58.333,-58.334c0,-8.675 -1.935,-17.242 -5.664,-25.075c-4.642,3.135 -8.632,7.139 -11.75,11.792c-4.167,6.292 -6.708,13.542 -11.583,19.333c-9.125,10.709 -24.667,14.209 -38.792,13.542c-14.125,-0.667 -27.75,-4.625 -41.667,-5.917c-1.958,0 -3.916,-0.333 -5.875,-0.375c5.93,25.301 28.084,43.732 54.042,44.959Z" style="fill-opacity:0.1;fill-rule:nonzero;"/><path d="M4366.96,2671c0.997,0.051 1.995,0.077 2.993,0.077c32,-0 58.333,-26.333 58.333,-58.334c-0,-8.304 -1.773,-16.513 -5.201,-24.076c-4.858,3.159 -9.095,7.185 -12.5,11.875c-4.541,6.416 -7.375,13.791 -12.5,19.708c-9.833,11 -26.416,14.875 -41.375,14.5c-14.958,-0.375 -28.416,-3.875 -42.833,-4.958c7.193,23.516 28.518,40.07 53.083,41.208Z" style="fill-opacity:0.1;fill-rule:nonzero;"/><path d="M4338.08,2784.54c9.886,19.676 30.104,32.145 52.125,32.145c31.175,-0 57.123,-24.992 58.292,-56.145c0.416,-8.081 -0.876,-16.16 -3.792,-23.709c-4.817,3.152 -9.142,6.999 -12.833,11.417c-5.583,6.792 -9.208,14.458 -15.667,20.833c-11.958,11.75 -31.25,16.667 -48.416,17.042c-9.925,0.04 -19.844,-0.489 -29.709,-1.583Z" style="fill-opacity:0.1;fill-rule:nonzero;"/><path d="M4484.12,2870.75c0,0 -46.167,-1.417 -60.042,-11.333c-13.875,-9.917 -70.833,-21.75 -74.458,-5.834c-3.625,15.917 -69.375,79.167 -17.25,79.417c52.125,0.25 121.083,-8.333 134.958,-16.667c13.875,-8.333 16.792,-45.583 16.792,-45.583Z" style="fill:#656380;fill-rule:nonzero;"/><path d="M4331.42,2927.46c52.125,0.417 121.083,-8.333 135,-16.666c10.541,-6.417 14.75,-29.542 16.166,-40.209l1.542,0c-0,0 -2.917,37.209 -16.667,45.834c-13.75,8.625 -82.875,17 -134.958,16.666c-15.042,0 -20.25,-5.458 -19.958,-13.416c1.958,4.708 7.708,7.791 18.875,7.791Z" style="fill-opacity:0.2;fill-rule:nonzero;"/><g><path d="M2268.31,839.746l-886.519,326.374l135.216,1210.14l751.303,429.594l751.303,-429.594l135.215,-1210.14l-886.518,-326.374Z" style="fill:#dd0031;fill-opacity:0.89;fill-rule:nonzero;"/><path d="M2268.31,827.246l-0,218.238l-0,-0.983l-0,1748.85l751.303,-429.594l135.215,-1210.14l-886.518,-326.374Z" style="fill:#c3002f;fill-opacity:0.75;fill-rule:nonzero;"/><path d="M2268.31,1044.5l-554.193,1282.89l206.632,-0l111.41,-287.052l470.397,-0l111.41,287.052l206.632,-0l-552.288,-1282.89Zm161.877,818.884l-323.755,0l161.878,-402.069l161.877,402.069Z" style="fill:#fff;fill-rule:nonzero;"/></g><path d="M2330.25,85c0,37.944 -31.223,69.167 -69.167,69.167c-37.943,-0 -69.166,-31.223 -69.166,-69.167c-0,-37.944 31.223,-69.167 69.166,-69.167c0.112,-0 0.223,-0 0.334,-0c37.761,-0 68.834,31.072 68.834,68.833c-0,0.111 -0,0.223 -0.001,0.334Z" style="fill:#3f3d56;fill-rule:nonzero;"/><path d="M2205.83,102.458c-5.679,-10.262 -8.658,-21.801 -8.658,-33.529c-0,-34.774 26.192,-64.427 60.7,-68.721c-0.807,-0.028 -1.614,-0.042 -2.421,-0.042c-37.943,-0 -69.166,31.223 -69.166,69.167c-0,37.943 31.223,69.166 69.166,69.166c2.773,0 5.543,-0.166 8.296,-0.499c-24.168,-0.893 -46.176,-14.398 -57.917,-35.542Z" style="fill:#3f3d56;fill-rule:nonzero;"/><rect x="2174.62" y="181.333" width="185.292" height="289.042" style="fill:#3f3d56;"/><rect x="2174.62" y="181.333" width="185.292" height="289.042" style="fill-opacity:0.1;"/><path d="M1881.92,1230c-0,0 -19.792,54.375 -66.667,61.792c-46.875,7.416 -74.125,19.75 -74.125,19.75l111.167,71.625l59.291,-7.417c0,0 7.417,-76.583 32.125,-93.875c24.709,-17.292 -61.791,-51.875 -61.791,-51.875Z" style="fill:#a0616a;fill-rule:nonzero;"/><path d="M2684.75,1230c0,0 19.792,54.375 66.667,61.792c46.875,7.416 74.125,19.75 74.125,19.75l-111.167,71.625l-59.292,-7.417c0,0 -7.416,-76.583 -32.125,-93.875c-24.708,-17.292 61.792,-51.875 61.792,-51.875Z" style="fill:#a0616a;fill-rule:nonzero;"/><path d="M2143.75,750.75c0,-0 -29.625,14.833 -39.5,44.5c0,-0 -54.167,17.292 -84,64.208c0,0 -37.083,39.542 -42,59.292c-4.917,19.75 -61.583,138.333 -61.583,138.333c-0,0 -56.834,185.292 -86.459,205.042c0,0 93.875,-19.75 111.167,74.125c0,0 22.208,0 46.917,-86.458c24.708,-86.459 84,-192.709 84,-192.709c-0,0 19.75,-74.083 37.041,-86.458c17.292,-12.375 44.459,-69.167 69.167,-54.167c24.708,15 187.75,-2.5 187.75,-2.5c0,0 96.25,44.334 98.667,73.959c2.416,29.625 19.75,32.125 22.208,56.833c2.458,24.708 93.875,219.833 93.875,219.833c0,0 17.292,54.167 22.25,66.667c0,0 54.167,-130.917 126,-56.792c0,0 -2.5,-49.416 -24.708,-79.166c-22.209,-29.75 -118.584,-261.834 -118.584,-261.834c0,0 -9.875,-34.583 -19.75,-44.458c-9.875,-9.875 -86.5,-88.958 -113.666,-88.958c-0,-0 -14.792,-37.042 -32.084,-42l-276.708,-7.292Z" style="fill:#3f3d56;fill-rule:nonzero;"/><path d="M1921.42,1358.46c-39.202,15.739 -83.924,9.733 -117.584,-15.791c-16.098,-12.363 -33.731,-22.587 -52.458,-30.417c-26.208,-10.583 -57.542,-18.417 -67.083,-0.708c-17.292,32.125 209.958,111.166 209.958,111.166c-0,0 29.667,-17.291 27.167,-64.25Z" style="fill:#3f3d56;fill-rule:nonzero;"/><path d="M2645.25,1358.46c39.202,15.739 83.924,9.733 117.583,-15.791c16.099,-12.363 33.732,-22.587 52.459,-30.417c26.208,-10.583 57.541,-18.417 67.083,-0.708c17.292,32.125 -209.958,111.166 -209.958,111.166c-0,0 -29.667,-17.291 -27.167,-64.25Z" style="fill:#3f3d56;fill-rule:nonzero;"/><path d="M2224.5,344.458c-0.917,8.584 -3.75,17.875 -11.083,22.417c-6,3.75 -13.584,3.458 -20.5,4.875c-14.717,3.685 -26.829,14.171 -32.584,28.208c-5.547,13.979 -6.639,29.336 -3.125,43.959c1.635,7.162 3.751,14.206 6.334,21.083c7.25,20.5 16,40.833 29.541,57.875c11.555,13.548 24.548,25.8 38.75,36.542c8.792,7.166 17.875,14.458 28.709,17.833c7.344,1.939 14.904,2.947 22.5,3c9.375,0.417 19.375,0.708 27.5,-3.958c12.5,-7.209 16.208,-23.125 23,-35.917c5.75,-10.833 14.333,-20.042 19.708,-31.083c3.819,-8.703 6.616,-17.82 8.333,-27.167l11.542,-51.25c4.167,-18.625 8,-39.625 -2.458,-55.583c-0.76,-1.299 -1.816,-2.398 -3.084,-3.209c-2.011,-0.793 -4.205,-1.009 -6.333,-0.625c-13.283,0.864 -26.534,-2.163 -38.125,-8.708c-1.817,-0.94 -3.443,-2.212 -4.792,-3.75c-1.664,-2.669 -2.664,-5.698 -2.916,-8.833c-1.127,-6.35 -2.914,-12.564 -5.334,-18.542c-0.681,-2.154 -1.934,-4.084 -3.625,-5.583c-1.774,-1.112 -3.788,-1.784 -5.875,-1.959c-17.837,-2.894 -35.824,-4.772 -53.875,-5.625c-5.916,-0.291 -14.833,-2.666 -18.916,2.584c-4.084,5.25 -2.792,17.166 -3.292,23.416Z" style="fill:#a0616a;fill-rule:nonzero;"/><path d="M2224.5,344.458c-0.917,8.584 -3.75,17.875 -11.083,22.417c-6,3.75 -13.584,3.458 -20.5,4.875c-14.717,3.685 -26.829,14.171 -32.584,28.208c-5.547,13.979 -6.639,29.336 -3.125,43.959c1.635,7.162 3.751,14.206 6.334,21.083c7.25,20.5 16,40.833 29.541,57.875c11.555,13.548 24.548,25.8 38.75,36.542c8.792,7.166 17.875,14.458 28.709,17.833c7.344,1.939 14.904,2.947 22.5,3c9.375,0.417 19.375,0.708 27.5,-3.958c12.5,-7.209 16.208,-23.125 23,-35.917c5.75,-10.833 14.333,-20.042 19.708,-31.083c3.819,-8.703 6.616,-17.82 8.333,-27.167l11.542,-51.25c4.167,-18.625 8,-39.625 -2.458,-55.583c-0.76,-1.299 -1.816,-2.398 -3.084,-3.209c-2.011,-0.793 -4.205,-1.009 -6.333,-0.625c-13.283,0.864 -26.534,-2.163 -38.125,-8.708c-1.817,-0.94 -3.443,-2.212 -4.792,-3.75c-1.664,-2.669 -2.664,-5.698 -2.916,-8.833c-1.127,-6.35 -2.914,-12.564 -5.334,-18.542c-0.681,-2.154 -1.934,-4.084 -3.625,-5.583c-1.774,-1.112 -3.788,-1.784 -5.875,-1.959c-17.837,-2.894 -35.824,-4.772 -53.875,-5.625c-5.916,-0.291 -14.833,-2.666 -18.916,2.584c-4.084,5.25 -2.792,17.166 -3.292,23.416Z" style="fill-opacity:0.1;fill-rule:nonzero;"/><path d="M2191.04,373.917c-9.649,-2.882 -19.641,-4.452 -29.709,-4.667c-23.833,-0.583 -49.333,7.625 -63.083,27.083c-9.364,14.04 -12.796,31.233 -9.542,47.792c3.318,16.409 10.778,31.701 21.667,44.417c6.292,6.684 11.878,14.001 16.667,21.833c6.583,12.5 6.791,27.458 8.583,41.667c4.167,33.833 18.583,65.625 24.292,99.25c5.708,33.625 0.791,72.583 -25.75,93.958c-4.459,3.583 -9.875,7.375 -10.25,13.083c-0.584,9.125 11.291,13 20.416,13.875c27.292,2.584 55.292,5.125 81.792,-1.916c10.958,-2.917 21.542,-7.459 32.708,-9.542c28.334,-5.292 56.834,5.583 85.209,10.792c20.534,3.39 41.313,5.076 62.125,5.041c4.843,0.433 9.723,-0.207 14.291,-1.875c4.632,-1.816 7.576,-6.452 7.25,-11.416c-0.925,-3.141 -2.615,-6.005 -4.916,-8.334c-14.334,-17.708 -18.709,-41.25 -22.625,-63.708l-13.125,-75.458c-7.042,-40.334 -13.584,-84.167 5.5,-120.375c13.708,-26.042 39,-44.375 53.458,-70c5.039,-7.744 7.316,-16.968 6.458,-26.167c-2.166,-12.875 -13.791,-22.083 -25.708,-27.458c-22.921,-10.282 -48.97,-11.239 -72.583,-2.667c0.416,18.042 -4.167,36.292 -7.125,54.167l-5.042,29.166c-2.566,17.189 -6.339,34.175 -11.292,50.834c-1.798,6.664 -4.869,12.918 -9.041,18.416c-4.449,4.947 -9.886,8.908 -15.959,11.625c-13.151,6.43 -27.611,9.739 -42.25,9.667c-6.339,0.097 -12.65,-0.875 -18.666,-2.875c-9.692,-4.249 -18.434,-10.398 -25.709,-18.083c-2.549,-2.18 -4.829,-4.655 -6.791,-7.375c-2.077,-3.463 -3.635,-7.211 -4.625,-11.125c-3.374,-10.192 -6.034,-20.606 -7.959,-31.167c-1.25,-8.083 -1.666,-16.292 -2.25,-24.458c-1.625,-24.125 -1.625,-50.792 -6.416,-74Z" style="fill:#6c63ff;fill-rule:nonzero;"/><path d="M2166,852.042c0,-0 -9.875,130.958 51.875,153.166c61.75,22.209 7.417,-108.708 7.417,-108.708l-19.792,-39.5l-39.5,-4.958Z" style="fill:#a0616a;fill-rule:nonzero;"/><path d="M2375.96,852.042c0,-0 9.875,130.958 -51.875,153.166c-61.75,22.209 -7.416,-108.708 -7.416,-108.708l19.791,-39.5l39.5,-4.958Z" style="fill:#a0616a;fill-rule:nonzero;"/><path d="M2111.62,414.958l-19.75,32.125c0,0 17.292,111.167 19.75,130.917c2.132,14.251 5.449,28.3 9.917,42c4.467,13.7 2.458,59.292 2.458,81.542c0,22.25 12.5,59.291 12.5,59.291c1.743,21.001 5.939,41.725 12.5,61.75c9.875,27.167 19.75,59.292 19.75,59.292c0,0 12.5,-34.583 61.75,17.292c11.405,-11.572 11.405,-30.428 0,-42c-11.405,-11.572 -14.792,-66.667 -14.792,-101.292c0,-34.625 -27.208,-200 -27.208,-200c0,-0 -17.667,-188 -76.875,-140.917Z" style="fill-opacity:0.1;fill-rule:nonzero;"/><path d="M2106.71,412.333l-19.75,32.125c0,0 17.292,111.167 19.75,130.917c2.139,14.254 5.47,28.303 9.959,42c4.488,13.697 2.458,59.292 2.458,81.5c0,22.208 12.5,59.292 12.5,59.292c1.732,21.002 5.928,41.727 12.5,61.75c9.875,27.208 19.792,59.291 19.792,59.291c-0,0 12.5,-34.583 61.75,17.292c11.378,-11.567 11.378,-30.391 -0,-41.958c-11.379,-11.568 -14.834,-66.667 -14.834,-101.292c0,-34.625 -27.166,-200 -27.166,-200c-0,-0 -17.667,-187.875 -76.959,-140.917Z" style="fill:#6c63ff;fill-rule:nonzero;"/><path d="M2432.79,395.042l12.5,14.708c-0,-0 14.541,84.083 -17.584,190.333l-9.875,96.334c0,-0 -17.291,81.541 -19.75,101.291c-2.458,19.75 -2.458,22.209 -7.416,29.625c-3.096,3.571 -3.096,8.93 -0,12.5l-14.834,54.167c0,0 -22.208,-27.167 -66.666,7.417c-0,-0 -12.5,-19.75 -2.5,-37.042c10,-17.292 9.875,-24.708 7.416,-29.667c-2.458,-4.958 9.875,-29.625 9.875,-34.583c0,-4.958 17.417,-118.5 17.417,-118.5c0,0 7.417,-111.167 14.833,-148.208c4.542,-22.792 4.459,-73.584 3.667,-109.334c-0.792,-37.25 44.292,-57.416 70.833,-31.25c0.625,0.667 1.375,1.292 2.084,2.209Z" style="fill-opacity:0.1;fill-rule:nonzero;"/><path d="M2440.21,389.958l12.5,14.709c0,-0 14.542,84.125 -17.583,190.333l-9.875,96.333c0,0 -17.292,81.542 -19.75,101.292c-2.458,19.75 -2.5,22.25 -7.417,29.667c-3.113,3.563 -3.113,8.936 0,12.5l-14.75,54.333c0,0 -22.208,-27.208 -66.666,7.375c-0,0 -12.5,-19.75 -2.459,-37.042c10.042,-17.291 9.875,-24.708 7.417,-29.625c-2.458,-4.916 9.875,-29.666 9.875,-34.583c0,-4.917 17.292,-118.583 17.292,-118.583c-0,-0 7.416,-111.167 14.833,-148.25c7.417,-37.084 2.458,-148.209 2.458,-148.209c0,0 39.542,-27.166 74.125,9.75Z" style="fill:#6c63ff;fill-rule:nonzero;"/><circle cx="2274.67" cy="256.708" r="98.833" style="fill:#a0616a;"/><path d="M2326.21,108.333c-9.826,27.429 -35.978,45.839 -65.114,45.839c-28.427,-0 -54.086,-17.526 -64.427,-44.005c38.583,-15.542 78,-1.709 78,-1.709c19.708,-6.916 36.791,-6.291 51.541,-0.125Z" style="fill-opacity:0.1;fill-rule:nonzero;"/><path d="M2274.67,113.417c-0,-0 -190.209,-66.667 -143.25,256.916c-0,0 42,27.167 74.083,9.875c0,0 -22.208,-224.791 64.25,-214.916c86.458,9.875 71.625,210 71.625,210c0,-0 49.417,14.791 64.25,-12.5c14.833,-27.292 -4.958,-293.667 -130.958,-249.375Z" style="fill:#3f3d56;fill-rule:nonzero;"/><path d="M2269.75,150.458c-59.333,-6.75 -67.5,96.959 -66.667,162.709c0.709,-65.375 11.709,-154.167 66.667,-147.875c61.708,7.041 71.833,111.083 72.542,170c0.708,-54.084 -5.209,-177.125 -72.542,-184.834Z" style="fill-opacity:0.1;fill-rule:nonzero;"/><path d="M2131.42,355.5c-4.301,-28.325 -6.765,-56.899 -7.375,-85.542c-0.206,33.601 2.26,67.165 7.375,100.375c5.115,33.21 42,27.167 74.083,9.875c0,0 -0.5,-5.333 -1.083,-14.291c-31.959,16.125 -73,-10.417 -73,-10.417Z" style="fill-opacity:0.1;fill-rule:nonzero;"/><path d="M2405.62,348.292c-13.833,25.333 -57.625,14.208 -63.542,12.5c-0.291,9.166 -0.708,14.666 -0.708,14.666c0,0 49.417,14.792 64.25,-12.5c3.042,-5.583 4.625,-21.375 4.167,-42.5c-0.417,13.542 -1.875,23.667 -4.167,27.834Z" style="fill-opacity:0.1;fill-rule:nonzero;"/><path d="M3444.71,2804c19.75,-36.583 -2.666,-81.417 -28.416,-114.042c-25.75,-32.625 -57.209,-66.666 -56.542,-108.333c0.958,-59.792 64.375,-95.042 115.083,-126.75c37.588,-23.506 72.26,-51.381 103.292,-83.042c12.5,-12.708 24.458,-26.291 31.75,-42.541c10.5,-23.334 10.208,-50 9.542,-75.5c-2.195,-85.306 -6.361,-170.5 -12.5,-255.584" style="fill:none;fill-rule:nonzero;stroke:#3f3d56;stroke-width:16.67px;"/><path d="M3703.08,1993.71c-1.446,-31.682 -19.01,-60.515 -46.5,-76.333l-20.833,41.25l0.625,-50c-8.584,-2.539 -17.489,-3.829 -26.441,-3.829c-51.132,0 -93.208,42.076 -93.208,93.208c-0,51.133 42.076,93.209 93.208,93.209c51.133,-0 93.209,-42.076 93.209,-93.209c-0,-1.446 -0.034,-2.892 -0.101,-4.337l0.041,0.041Z" style="fill:#6c63ff;fill-rule:nonzero;"/><path d="M3536.92,2624.5c-15.941,30.999 -47.997,50.56 -82.854,50.56c-51.11,0 -93.167,-42.057 -93.167,-93.166c0,-51.11 42.057,-93.167 93.167,-93.167c38.871,0 73.838,24.327 87.354,60.773l-58.334,47.375l64.042,-14.875c0.033,14.777 -3.467,29.35 -10.208,42.5Z" style="fill:#6c63ff;fill-rule:nonzero;"/><path d="M3490.88,2443.54c-1.315,0.055 -2.631,0.083 -3.947,0.083c-51.132,0 -93.208,-42.075 -93.208,-93.208c0,-41.497 27.712,-78.23 67.613,-89.625l-0.5,38.416l21.084,-41.666l0.25,-0c1.673,-0.091 3.348,-0.136 5.023,-0.136c51.133,0 93.208,42.076 93.208,93.209c0,49.742 -39.819,91.168 -89.523,93.135l0,-0.208Z" style="fill:#6c63ff;fill-rule:nonzero;"/><path d="M3717.12,2293c-1.452,0.068 -2.906,0.102 -4.359,0.102c-51.133,0 -93.209,-42.076 -93.209,-93.208c0,-51.133 42.076,-93.209 93.209,-93.209c15.956,0 31.648,4.098 45.567,11.898l-16.666,45.125l33.875,-32.5c19.235,17.646 30.2,42.584 30.2,68.687c0,49.48 -39.4,90.778 -88.825,93.105l0.208,0Z" style="fill:#6c63ff;fill-rule:nonzero;"/><path d="M3690.58,2018.54c-21.541,2.375 -42.458,9.083 -64.041,10.416c-21.584,1.334 -45.292,-3.833 -58.917,-20.833c-7.375,-9.042 -11.042,-20.458 -17.25,-30.333c-5.896,-9.168 -13.952,-16.751 -23.458,-22.084c-6.659,13.091 -10.13,27.571 -10.13,42.258c0,51.132 42.076,93.208 93.209,93.208c43.773,0 81.936,-30.835 91.129,-73.632c-3.542,0.375 -7.042,0.625 -10.542,1Z" style="fill-opacity:0.1;fill-rule:nonzero;"/><path d="M3717.12,2293c-1.424,0.065 -2.849,0.098 -4.274,0.098c-51.178,-0 -93.292,-42.113 -93.292,-93.292c0,-13.748 3.039,-27.328 8.899,-39.764c7.421,4.975 13.791,11.36 18.75,18.791c6.625,10 10.667,21.584 18.459,30.792c14.5,17.042 39.333,22.625 61.833,21.625c22.5,-1 44.167,-7.417 66.667,-9.5c3.125,-0.25 6.25,-0.458 9.416,-0.542c-9.502,40.446 -44.954,69.885 -86.458,71.792Z" style="fill-opacity:0.1;fill-rule:nonzero;"/><path d="M3490.88,2443.54c-1.45,0.067 -2.901,0.101 -4.352,0.101c-51.132,0 -93.208,-42.075 -93.208,-93.208c0,-13.132 2.775,-26.117 8.143,-38.102c7.686,5.046 14.369,11.474 19.709,18.959c7.25,10.208 11.75,21.958 20.25,31.416c15.708,17.5 42.125,23.667 65.958,23.084c23.083,-0.5 45.292,-6.167 68.25,-7.917c-11.536,37.49 -45.567,63.858 -84.75,65.667Z" style="fill-opacity:0.1;fill-rule:nonzero;"/><path d="M3536.92,2624.5c-15.821,31.372 -48.09,51.239 -83.225,51.239c-51.133,-0 -93.208,-42.076 -93.208,-93.209c-0,-11.721 2.211,-23.337 6.516,-34.238c7.685,5.036 14.58,11.187 20.458,18.25c8.875,10.791 14.709,23.041 25,33.083c19.042,18.708 49.792,26.417 77.167,27.125c15.794,0.174 31.585,-0.577 47.292,-2.25Z" style="fill-opacity:0.1;fill-rule:nonzero;"/><path d="M3304.17,2761.88c-0,0 73.541,-2.25 95.833,-18.042c22.292,-15.791 113.167,-34.625 118.667,-9.333c5.5,25.292 110.541,125.917 27.5,126.583c-83.042,0.667 -192.959,-12.916 -215.084,-26.416c-22.125,-13.5 -26.916,-72.792 -26.916,-72.792Z" style="fill:#656380;fill-rule:nonzero;"/><path d="M3547.5,2852.46c-83.042,0.667 -192.958,-12.958 -215.083,-26.416c-16.667,-10.292 -23.542,-47.084 -25.792,-64.084l-2.458,0c-0,0 4.666,59.334 26.791,72.792c22.125,13.458 132.042,27.083 215.084,26.417c23.958,-0 32.25,-8.709 31.791,-21.334c-3.333,7.542 -12.458,12.292 -30.333,12.625Z" style="fill-opacity:0.2;fill-rule:nonzero;"/><path d="M1345.83,178.583l-76.041,48.209l46.166,-83.959c-13.024,-10.414 -29.158,-16.193 -45.833,-16.416l-1.25,-0c-5.274,0.073 -10.544,-0.317 -15.75,-1.167l-25.792,16.333l11.042,-20.083c-18.249,-6.377 -34.029,-18.35 -45.083,-34.208l-46.125,29.166l29.166,-53c-27,-32.375 -63.333,-52.25 -103.375,-52.25c-47.958,0 -90.666,28.542 -118.25,73c-16.585,27.025 -46.474,43.148 -78.166,42.167l-2.584,0c-52.958,0 -95.833,60.042 -95.833,134.125c0,74.083 42.917,134.083 95.833,134.083c11.622,-0.033 23.063,-2.894 33.334,-8.333c34.541,-17.958 79.875,-18.292 116.041,-2.25c31.345,14.099 67.263,14.174 98.667,0.208c35.917,-15.708 80.708,-15.375 115.042,2.25c10.185,5.389 21.519,8.248 33.041,8.334c52.959,-0 95.834,-60.042 95.834,-134.084c0.317,-28.626 -6.591,-56.875 -20.084,-82.125Z" style="fill:#f2f2f2;fill-rule:nonzero;"/><path d="M1202.46,374.792c-27.663,-5.261 -56.276,-2.155 -82.166,8.916c-31.393,13.954 -67.292,13.878 -98.625,-0.208c-36.209,-16.042 -81.542,-15.708 -116.084,2.25c-10.27,5.439 -21.711,8.3 -33.333,8.333c-47.042,0 -86.167,-47.416 -94.333,-109.916c9.397,-6.846 17.378,-15.45 23.5,-25.334c27.75,-44.416 70.291,-73.041 118.25,-73.041c47.958,-0 90.166,28.208 117.75,72.166c16.722,26.982 46.424,43.306 78.166,42.959l1.084,-0c37.5,0.041 70,30.083 85.791,73.875Z" style="fill-opacity:0.03;fill-rule:nonzero;"/><path d="M3333.62,276.75l-37.792,24.042l23.042,-41.667c-6.507,-5.261 -14.592,-8.195 -22.958,-8.333l-0.584,-0c-2.637,0.037 -5.272,-0.159 -7.875,-0.584l-12.875,8.334l5.417,-10.25c-9.105,-3.172 -16.98,-9.137 -22.5,-17.042l-23,14.583l14.542,-26.416c-12.385,-15.982 -31.329,-25.569 -51.542,-26.084c-23.958,0 -45.25,14.25 -59,36.417c-8.309,13.423 -23.223,21.39 -39,20.833l-1.292,0c-26.416,0 -47.833,29.959 -47.833,66.667c0,36.708 21.417,66.875 47.833,66.875c5.811,-0.02 11.531,-1.45 16.667,-4.167c18.184,-8.835 39.362,-9.247 57.875,-1.125c15.654,6.969 33.554,6.969 49.208,0c18.374,-7.957 39.328,-7.546 57.375,1.125c5.136,2.718 10.856,4.148 16.667,4.167c26.417,0 47.833,-29.917 47.833,-66.875c0.04,-14.141 -3.47,-28.068 -10.208,-40.5Z" style="fill:#f2f2f2;fill-rule:nonzero;"/><path d="M3262.17,374.625c-13.792,-2.605 -28.051,-1.053 -40.959,4.458c-15.654,6.969 -33.554,6.969 -49.208,0c-18.528,-8.123 -39.719,-7.711 -57.917,1.125c-5.132,2.728 -10.854,4.159 -16.666,4.167c-23.5,0 -43,-23.625 -47.084,-54.792c4.673,-3.384 8.661,-7.626 11.75,-12.5c13.75,-22.166 35.084,-36.375 59,-36.375c23.917,0 44.959,14.042 58.709,35.959c8.334,13.469 23.162,21.611 39,21.416l0.625,0c18.708,-0.291 34.75,14.709 42.75,36.542Z" style="fill-opacity:0.03;fill-rule:nonzero;"/><path d="M851.417,899.417l61.083,38.666l-37,-67.291c10.49,-8.35 23.469,-12.97 36.875,-13.125l0.958,-0c4.186,0.062 8.369,-0.244 12.5,-0.917l20.625,13.083l-8.958,-16.083c14.609,-5.137 27.247,-14.728 36.125,-27.417l36.958,23.417l-23.083,-42.458c21.625,-25.917 50.75,-41.667 82.792,-41.667c38.458,0 72.666,22.833 94.791,58.333c13.253,21.627 37.148,34.546 62.5,33.792l2.084,0c42.416,0 76.791,48.083 76.791,107.417c0,59.333 -34.375,107.458 -76.791,107.458c-9.342,-0.036 -18.536,-2.338 -26.792,-6.708c-29.208,-14.191 -63.225,-14.847 -92.958,-1.792c-25.176,11.253 -53.992,11.253 -79.167,0c-29.513,-12.784 -63.173,-12.13 -92.167,1.792c-8.173,4.254 -17.244,6.497 -26.458,6.541c-42.458,0 -76.833,-48.083 -76.833,-107.458c-0.2,-22.865 5.345,-45.418 16.125,-65.583Z" style="fill:#f2f2f2;fill-rule:nonzero;"/><path d="M966.208,1056.62c22.168,-4.177 45.084,-1.683 65.834,7.167c25.175,11.253 53.991,11.253 79.166,-0c29.747,-13.057 63.778,-12.401 93,1.791c8.242,4.37 17.422,6.672 26.75,6.709c37.709,-0 69.042,-37.959 75.584,-88.042c-7.524,-5.507 -13.919,-12.41 -18.834,-20.333c-22.125,-35.584 -56.333,-58.334 -94.791,-58.334c-38.459,0 -72.209,22.584 -94.334,57.834c-13.374,21.573 -37.118,34.633 -62.5,34.375l-0.958,-0c-30.25,-0.292 -56.25,23.791 -68.917,58.833Z" style="fill-opacity:0.03;fill-rule:nonzero;"/></svg>